<svg xmlns="http://www.w3.org/2000/svg" xmlns:xlink="http://www.w3.org/1999/xlink" width="772.205" height="604.145" viewBox="0 0 772.205 604.145"><defs><linearGradient id="a" x1="9.047" y1="0.5" x2="10.047" y2="0.5" gradientUnits="objectBoundingBox"><stop offset="0" stop-color="#7cbb51"/><stop offset="1" stop-color="#4aa948"/></linearGradient><linearGradient id="b" x1="22.09" y1="0.5" x2="23.09" y2="0.5" gradientUnits="objectBoundingBox"><stop offset="0.015" stop-color="#028e67"/><stop offset="1" stop-color="#007a5a"/></linearGradient><linearGradient id="c" x1="17.39" y1="0.173" x2="18.146" y2="1.115" gradientUnits="objectBoundingBox"><stop offset="0" stop-color="#c4cb45"/><stop offset="1" stop-color="#aec644"/></linearGradient><linearGradient id="d" x1="36.9" y1="0.08" x2="36.9" y2="0.692" gradientUnits="objectBoundingBox"><stop offset="0.01" stop-color="#28b062"/><stop offset="1" stop-color="#19a963"/></linearGradient><linearGradient id="e" x1="21.741" y1="0.5" x2="22.741" y2="0.5" xlink:href="#d"/><linearGradient id="f" x1="17.302" y1="0.236" x2="16.22" y2="0.905" xlink:href="#a"/><linearGradient id="g" x1="24.29" y1="1.047" x2="23.714" y2="0.147" xlink:href="#b"/><linearGradient id="h" x1="13.156" y1="0.985" x2="12.462" y2="0.028" xlink:href="#c"/><linearGradient id="i" x1="30.273" y1="0.5" x2="31.273" y2="0.5" xlink:href="#c"/><linearGradient id="j" x1="25.073" y1="0.5" x2="26.073" y2="0.5" xlink:href="#b"/><linearGradient id="k" x1="593.488" y1="0.5" x2="594.487" y2="0.5" xlink:href="#b"/><linearGradient id="l" x1="32.079" y1="0.5" x2="33.079" y2="0.5" xlink:href="#c"/><linearGradient id="m" x1="92.638" y1="0.5" x2="93.638" y2="0.5" xlink:href="#b"/><linearGradient id="n" y1="0.5" x2="1" y2="0.5" gradientUnits="objectBoundingBox"><stop offset="0" stop-color="#bde6f8"/><stop offset="1" stop-color="#a1dcf3"/></linearGradient><linearGradient id="o" x1="0.644" y1="0.906" x2="0.401" y2="0.029" gradientUnits="objectBoundingBox"><stop offset="0" stop-color="#bde6f8"/><stop offset="1" stop-color="#dcedf9"/></linearGradient><linearGradient id="p" x1="0.533" y1="0.304" x2="0.665" y2="0.94" gradientUnits="objectBoundingBox"><stop offset="0" stop-color="#d9f0f7"/><stop offset="1" stop-color="#bde6f8"/></linearGradient><linearGradient id="r" x1="0.346" y1="-0.012" x2="0.848" y2="0.794" xlink:href="#n"/></defs><g transform="translate(224.987 311.282)"><path d="M207.157,366.095c-.639,44.081-17.89,96.8-17.89,96.8H141.992a43.339,43.339,0,0,1-3.4-7.589c-9.238-25.911-17.365-89.212-17.365-89.212Z" transform="translate(-86.996 -206.923)" fill="#cdeae7"/><path d="M201.176,366.095c-.639,44.081-17.89,96.8-17.89,96.8H136.01a43.335,43.335,0,0,1-3.4-7.589c53.014,5.661,52.183-66.177,50.65-88.574C194.2,366.438,201.176,366.095,201.176,366.095Z" transform="translate(-81.014 -206.923)" fill="#b0dedd"/><path d="M127.281,371.612s11.878,3.135,16.016,2.476l2.308,60.036s-6.737-3.278-9.162-7.071S127.281,371.612,127.281,371.612Z" transform="translate(-83.815 -204.024)" fill="#fff" opacity="0.5"/><path d="M162.534,390.287h-9.313c-3.222-4.956-8.689-10.723-14.273-16.024-5.443-9.226-11.2-20.468-13.327-29.645,0,0-8.23,18.2-26.411,20.982-.139.037-.282.05-.423.076,0,0,.04-.59.168-1.687a88.5,88.5,0,0,1,19.688-43.929,192.96,192.96,0,0,1,14.938,14.157l.012.014v.012l13.583,15.832.5.587c.307.894.613,1.8.92,2.711v.011C153.528,367.81,159.544,382.912,162.534,390.287Z" transform="translate(-98.788 -231.115)" fill="url(#a)"/><path d="M187.56,344.431c-1.762,19.78-10.4,44.148-14.323,55.086H162.261c4.293-15.144,13.737-52.555,18.719-80.281,1.609-5,3.016-9.214,4.011-12.152.435-1.315.807-2.377,1.06-3.143.32-.934.5-1.445.5-1.445S189.848,318.711,187.56,344.431Z" transform="translate(-65.432 -240.345)" fill="url(#b)"/><path d="M145.941,377.241H127.847c-3.425-7-9.98-20.574-14.566-30.911-.217-.5-.435-.97-.639-1.443,0,0,.715.549,1.954,1.535,0,.011.015.011.015.024,3.3,2.633,10.258,8.343,17.057,14.772C137.252,366.518,142.719,372.284,145.941,377.241Z" transform="translate(-91.508 -218.069)" fill="url(#c)"/><path d="M163.19,411.24c-.549,3.911-.972,7.181-1.291,9.687h-3.451c-.012-.233-.037-.462-.052-.7-.037-.369-.075-.767-.1-1.176-.027-.357-.064-.74-.1-1.138-.011-.166-.024-.333-.037-.511-.026-.281-.05-.561-.078-.856-.05-.525-.088-1.06-.139-1.608-.078-.857-.156-1.751-.244-2.683-.052-.628-.114-1.266-.178-1.918q-.059-.6-.114-1.188c-.1-1.022-.206-2.07-.307-3.156-.064-.539-.116-1.086-.166-1.635-.23-2.212-.487-4.537-.755-6.926-.038-.449-.088-.906-.153-1.367-.012-.154-.04-.293-.052-.449-.089-.8-.18-1.62-.281-2.441-.191-1.646-.4-3.319-.613-5.008V388.1c-.078-.612-.166-1.239-.244-1.866-.215-1.672-.433-3.359-.662-5.045-.218-1.522-.435-3.068-.665-4.59v-.063c-.178-1.174-.357-2.351-.537-3.513q-.364-2.224-.729-4.409c-.279-1.647-.561-3.283-.868-4.892-.14-.807-.293-1.6-.447-2.378-.038-.177-.078-.357-.1-.525-.012-.037-.012-.087-.026-.128-.192-.969-.383-1.916-.589-2.848-.165-.8-.331-1.585-.51-2.365s-.345-1.532-.523-2.273c-.117-.5-.23-1-.359-1.484s-.229-.969-.357-1.442c-1.931-7.423-3.617-15.066-5.048-22.26a261.617,261.617,0,0,1,1.2-27.638c1.893-19.664,6.85-32.376,9.008-36.849v-.014a10.5,10.5,0,0,1,.985-1.763s.05.293.125.87v.012c.947,6.287,6.493,45.08,6.493,79.4C161.234,365.776,162.36,393.837,163.19,411.24Z" transform="translate(-75.343 -261.755)" fill="#7cbb51"/><path d="M145.1,363.017c-.944-1.953-2.044-4.062-3.22-6.273-.012-.012-.012-.012-.012-.024-.026-.028-.026-.053-.052-.076-.435-.809-.882-1.639-1.342-2.479-.012-.014-.012-.014-.012-.027-.359-.651-.728-1.3-1.112-1.98-.459-.818-.932-1.651-1.4-2.479-1.022-1.764-2.056-3.553-3.118-5.327-.078-.142-.166-.282-.256-.423-.575-.97-1.15-1.93-1.724-2.888-1.509-8.624-3.59-22.934-3.59-36.237,0-16.407,9.952-34.589,12.444-38.908.358-.627.563-.957.563-.957s.063.944.168,2.593c.319,5.467,1.033,18.694,1.2,31.075a177.536,177.536,0,0,0-2.032,35.9A230.157,230.157,0,0,0,145.1,363.017Z" transform="translate(-82.779 -260.082)" fill="url(#d)"/><path d="M139.864,358.946c-.14-.178-.281-.346-.423-.525-4.689-5.878-9.341-11.077-13.493-15.4v-.012l-.012-.014a399.12,399.12,0,0,1-12.6-39.648s.14.142.4.4l.011.014c.641.665,2.021,2.108,3.773,4.114,1.3,1.495,2.81,3.307,4.368,5.329,4.473,5.84,9.38,13.493,11.066,20.736.435,1.841.857,3.683,1.278,5.484.114.471.23.944.319,1.405a.043.043,0,0,1,.012.026.883.883,0,0,1,.052.191c.358,1.521.767,3.142,1.24,4.843.114.447.255.906.383,1.381.166.586.331,1.175.511,1.776a.042.042,0,0,1,.012.037c.153.548.319,1.1.5,1.663s.333,1.124.511,1.686c.358,1.14.728,2.3,1.1,3.463a.237.237,0,0,0,.026.066c.05.191.116.369.178.561C139.327,357.323,139.6,358.13,139.864,358.946Z" transform="translate(-91.142 -239.896)" fill="url(#e)"/><path d="M135.519,345.281c-4.828-6.09-9.64-11.475-13.911-15.928l14.079,16.427C135.63,345.613,135.576,345.447,135.519,345.281Z" transform="translate(-86.796 -226.232)" fill="#28b062"/><path d="M191.061,266.445s0,1.036-.05,2.928v.116c-.064,3.027-.218,8.137-.575,14.656v.1c-.078,1.533-.18,3.168-.281,4.857a443.068,443.068,0,0,1-5.635,49.079c-4.982,27.726-14.427,65.138-18.72,80.281H155.527c.319-2.506.741-5.776,1.291-9.687,1.008-7.271,2.465-16.739,4.409-27.624,4.511-25.313,9.162-33.273,17.772-65S191.061,266.445,191.061,266.445Z" transform="translate(-68.971 -259.29)" fill="url(#f)"/><path d="M161.7,410.222h-3.628c-.615-2.657-1.533-6.569-2.683-11.144-.767-3.065-1.649-6.439-2.593-9.951a.366.366,0,0,0-.027-.117c-2.886-10.643-6.451-22.541-10.042-31.024-.423-1-.844-1.954-1.251-2.85-.178-.371-.372-.767-.563-1.15a230.15,230.15,0,0,1-3.5-28.506,177.536,177.536,0,0,1,2.032-35.9c.243-1.625.485-3.017.7-4.14v-.026c.384-2.107.651-3.285.651-3.285s.076.653.255,1.841c.639,4.715,2.557,18.016,5.611,33.348,1.431,7.194,3.117,14.837,5.048,22.26.128.473.241.958.357,1.442s.241.985.359,1.484q.535,2.245,1.033,4.638c.218.972.412,1.968.615,2.976.024.168.064.348.1.525.154.781.307,1.571.447,2.378.307,1.609.589,3.245.868,4.892q.364,2.183.729,4.409c.18,1.162.359,2.339.537,3.513v.038c.23,1.535.447,3.081.665,4.615.229,1.686.447,3.373.662,5.045.078.639.166,1.266.244,1.893v.037c.217,1.689.423,3.362.613,5.008.1.821.192,1.637.281,2.441.563,4.857,1.036,9.457,1.432,13.533q.055.593.114,1.188c.217,2.261.4,4.345.561,6.209.04.462.078.921.114,1.367.04.4.076.781.1,1.138.026.409.064.807.1,1.176C161.668,409.76,161.692,409.989,161.7,410.222Z" transform="translate(-78.599 -251.05)" fill="url(#g)"/><path d="M130.895,340.293,132.1,341.7l-.087-.278c-.429-.555-.857-1.091-1.288-1.632C130.783,339.96,130.838,340.127,130.895,340.293Z" transform="translate(-82.004 -220.745)" fill="#c4cb45"/><path d="M166.8,402.6H151.367c-2.99-7.374-9.007-22.477-13.938-36.9v-.011c-.307-.908-.613-1.817-.92-2.711l.688.793v.012l.513.589c-.014-.04-.038-.13-.078-.256-.163-.206-.319-.407-.471-.613-.282-.345-.551-.69-.818-1.022-.268-.816-.537-1.623-.793-2.427-.05-.154-.1-.308-.153-.449a.1.1,0,0,1-.014-.062.082.082,0,0,1-.012-.05.236.236,0,0,1-.026-.066c-.371-1.162-.74-2.323-1.1-3.463s-.691-2.249-1.01-3.348a.042.042,0,0,0-.012-.037c-.18-.6-.345-1.19-.511-1.776-.14-.475-.268-.934-.383-1.381-.473-1.7-.882-3.323-1.24-4.843a.885.885,0,0,0-.052-.191.043.043,0,0,0-.012-.026c-.1-.461-.2-.934-.319-1.4q-.632-2.7-1.278-5.484c-3.271-14.079-6.605-28.646-8.291-35.981l-1.1-4.854s.05.078.166.243c1.24,1.866,9.481,14.26,17.479,27.51.574.958,1.149,1.917,1.724,2.888.09.14.179.281.256.423,1.062,1.774,2.1,3.564,3.118,5.327.473.828.946,1.661,1.405,2.479.384.677.754,1.341,1.124,1.994v.014c.461.841.908,1.67,1.342,2.479a.228.228,0,0,1,.052.076c0,.012,0,.012.012.024,1.176,2.21,2.276,4.32,3.22,6.273.114.641.243,1.266.357,1.905l1.457,2.095c3.591,8.483,7.156,20.381,10.042,31.024a.364.364,0,0,1,.027.117c.944,3.512,1.826,6.886,2.593,9.951C165.3,395.823,166.127,399.66,166.8,402.6Z" transform="translate(-87.621 -243.426)" fill="url(#h)"/><path d="M151.811,369.934h-.294c-.677-2.938-1.507-6.775-2.389-11.144C150.278,363.365,151.2,367.276,151.811,369.934Z" transform="translate(-72.334 -210.762)" fill="#c4cb45"/><path d="M139.64,329.231c.116.641.238,1.272.354,1.907l1.457,2.092c-.42-.993-.837-1.953-1.255-2.844C140.018,330.011,139.828,329.618,139.64,329.231Z" transform="translate(-77.32 -226.296)" fill="#c4cb45"/><g transform="translate(101.568 63.595)"><path d="M184.419,303.443a340.98,340.98,0,0,1-3.384,38.255c-3.182,22.886-11.82,49.077-14.657,57.321h-1.01c2.721-7.846,11.513-34.36,14.707-57.451,2.224-16.112,3.014-27.957,3.283-34.983C183.793,305.27,184.165,304.209,184.419,303.443Z" transform="translate(-165.368 -303.443)" fill="url(#i)"/></g><g transform="translate(90.798 10.082)"><path d="M189.549,268.364v.116c-1.239,13.9-5.3,51.875-14.26,76.089-8.509,23.052-14.732,58.776-16.98,72.884h.958c2.275-14.171,8.471-49.655,16.93-72.553,6.7-18.119,10.669-43.915,12.778-61.664v-.1Z" transform="translate(-158.308 -268.364)" fill="#e4e4aa"/></g><g transform="translate(0 96.628)"><path d="M160.312,387.64h-1.086c-6.926-13.33-27.484-51.738-39.175-61.345-2.084,3.46-15.128,25.285-20.84,36.658-.139.037-.282.05-.423.076,0,0,.04-.59.168-1.687,6.413-12.509,19.854-34.856,20.558-36.019a.467.467,0,0,1,.319-.217.448.448,0,0,1,.384.088C132.277,334.546,153.5,374.454,160.312,387.64Z" transform="translate(-98.788 -325.096)" fill="#e4e4aa"/></g><g transform="translate(21.134 126.817)"><path d="M137.776,377.241H136.6c-5.751-7.808-17.287-23.412-23.319-30.911-.217-.5-.435-.97-.639-1.443,0,0,.715.549,1.954,1.535,0,.011.015.011.015.024C120.948,354.405,132.371,369.866,137.776,377.241Z" transform="translate(-112.642 -344.886)" fill="#e4e4aa"/></g><g transform="translate(32.417 53.207)"><path d="M160.3,402.6h-.984c-2.48-8.488-8.7-28-16.343-48.34-6.453-17.183-15.4-37.871-20.739-50.24-.394-.92-.754-1.75-1.1-2.531l-1.1-4.854s.05.078.166.243c.793,1.852,1.788,4.191,2.9,6.76,5.355,12.369,14.311,33.081,20.764,50.282C151.367,373.9,157.81,393.933,160.3,402.6Z" transform="translate(-120.038 -296.633)" fill="#e4e4aa"/></g><g transform="translate(22.602 63.862)"><path d="M136.095,347.127c.166.586.331,1.175.511,1.776-5.968-16.828-18.363-37.988-23-45.285.641.665,2.021,2.108,3.773,4.114a281.85,281.85,0,0,1,17.031,32.954.043.043,0,0,1,.012.026.887.887,0,0,1,.052.191c.358,1.521.767,3.142,1.24,4.844C135.826,346.193,135.966,346.653,136.095,347.127Z" transform="translate(-113.604 -303.618)" fill="url(#j)"/><path d="M131.061,340.823c-.14-.178-.281-.346-.423-.525-.153-.767-.333-1.547-.523-2.351a.335.335,0,0,1-.026-.113c.05.191.116.369.178.561C130.524,339.2,130.792,340.007,131.061,340.823Z" transform="translate(-104.941 -285.637)" fill="url(#k)"/></g><g transform="translate(61.55 31.075)"><path d="M157.063,410.222c-.615-2.657-1.533-6.569-2.683-11.144.882,4.369,1.712,8.206,2.389,11.144h-.639c-1.06-4.956-2.632-12.486-4.343-21.095a.365.365,0,0,0-.027-.117c-3.437-17.25-7.435-38.82-9.007-52.848-2.123-19.025-3.181-40.209-3.617-50.726v-.026c.384-2.107.651-3.285.651-3.285s.076.653.255,1.841c.384,9.928,1.446,32.2,3.669,52.081,2.351,21.147,10.273,59.454,13.4,74.175Z" transform="translate(-139.135 -282.125)" fill="url(#l)"/></g><g transform="translate(75.296)"><path d="M154.447,420.927h-.958c-.574-9.559-1.532-26.195-2.477-44.328v-.063c-1.216-22.834-2.389-48.055-2.773-64.514-.537-23.255,1.393-39.6,2.888-48.49v-.014a10.5,10.5,0,0,1,.986-1.763s.05.293.125.87v.012c-1.492,8.561-3.6,25.2-3.039,49.361.447,19.319,2,50.676,3.385,76.1v.064C153.324,401.644,154,413.45,154.447,420.927Z" transform="translate(-148.146 -261.755)" fill="#e4e4aa"/></g><g transform="translate(53.422 4.857)"><path d="M139.47,356.72c-.026-.028-.026-.053-.052-.076-.435-.809-.882-1.639-1.342-2.479-.012-.014-.012-.014-.012-.027-2.274-13.85-5.507-37.578-3.756-51.953,1.852-15.154,3.922-29.413,4.995-36.289.358-.627.563-.957.563-.957s.063.944.168,2.593c-1.1,7.1-2.991,20.175-4.767,34.768C133.4,317.555,137.22,343.533,139.47,356.72Z" transform="translate(-133.807 -264.939)" fill="url(#m)"/></g><path d="M111.794,316.686a2.763,2.763,0,1,1,2.761,2.763A2.761,2.761,0,0,1,111.794,316.686Z" transform="translate(-91.953 -234.339)" fill="#ef587b"/><path d="M126.222,301.687a2.763,2.763,0,1,1,2.761,2.764A2.76,2.76,0,0,1,126.222,301.687Z" transform="translate(-84.371 -242.221)" fill="#ef587b"/><path d="M139.147,279.48a2.18,2.18,0,1,1,2.178,2.18A2.178,2.178,0,0,1,139.147,279.48Z" transform="translate(-77.579 -253.585)" fill="#ef587b"/><path d="M179.926,272.333a2.179,2.179,0,1,1,2.178,2.181A2.18,2.18,0,0,1,179.926,272.333Z" transform="translate(-56.149 -257.342)" fill="#ef587b"/><path d="M132.378,318.3a2.179,2.179,0,1,1,2.18,2.18A2.183,2.183,0,0,1,132.378,318.3Z" transform="translate(-81.136 -233.188)" fill="#ef587b"/></g><path d="M43,428.832H815.205s-103.425,35.343-401.25,37.886C138.284,469.072,43,428.832,43,428.832Z" transform="translate(-43 137.327)" fill="#242424"/><g transform="translate(337.009 260.307)"><g transform="translate(92.931 275.328)"><path d="M245.251,408.823l-1.876,13-2.757,18.461-7.479.061V412.18Z" transform="translate(-233.139 -408.823)" fill="#f5d198"/><path d="M245.252,408.823l-1.876,13c-3.648.731-7.658,1.509-10.236,2.105V412.179Z" transform="translate(-233.139 -408.823)" fill="#f8c784"/></g><path d="M335.333,311.337Z" transform="translate(-86.503 -184.725)" fill="#bde6f8"/><path d="M341.416,352.292l21.612-99.947c-1.78-5.594-21.612-18.942-21.612-18.942L323.757,356.3Z" transform="translate(-92.587 -225.68)" fill="url(#n)"/><path d="M334.213,320.173l1.911-8.836-2.3,8.836Z" transform="translate(-87.294 -184.725)" fill="#bde6f8"/><path d="M204.571,362.544l-4.581-.306h0l-9.657-.585,14.238.891Z" transform="translate(-162.702 -158.283)" fill="#bde6f8"/><path d="M285.219,368.015h1.208l-1.24-.081Z" transform="translate(-112.856 -154.983)" fill="#bde6f8"/><path d="M242.142,230.343c-30.129,5.721-28.6,38.9-27.078,62.165.754,11.482,3.689,43.35,6.47,72.874,2.632,27.946,5.522,58.557,5.522,58.557.012.172.021.3.021.336l90.318,3.47-.014-.038,1.1.049c-6.38-17.707-16.411-45.094-16.387-48.049.037-4.41,12.794-7.8,17.312-6.367l.088-.374,61.736-14.006,17.661-122.9C384.014,232.631,272.27,224.622,242.142,230.343Z" transform="translate(-150.058 -228.34)" fill="url(#o)"/><path d="M223.983,356.391l-1.307-.055.027.339Z" transform="translate(-145.706 -161.078)" fill="#bde6f8"/><path d="M282.3,359.187l-.156-.355-.316-.014c.043.119.088.243.13.358Z" transform="translate(-114.621 -159.773)" fill="#bde6f8"/><path d="M325.576,373.54l-2.625-13.165s-88.043-3.644-88.055-3.817l-35.419,7.385c.171.743.268,1.178.285,1.251l0,.027Z" transform="translate(-157.897 -160.961)" fill="#b6e3f7"/><path d="M354.659,390.639c-.105.641-.166.992-.166.992l-.107.519L338.413,466.9l-11.624-.4c-24.53-1.1-81.249-4.166-104.253-5.416l-9.809-.536a1.15,1.15,0,0,0-.168-.015c-1.983-5-5.065-21.144-7.719-37.511-.091-.519-.168-1.022-.259-1.541-3.021-18.887-5.4-37.634-4.729-39.512-.046-.107-.076-.212-.122-.32-.183-.456-.427-.992-.717-1.571-5.66-11.64-29.015-44.438-26.62-49.472,2.548-5.339,16.018-7.628,16.018-7.628s6.865,6.1,13.47,20.35c5.171,11.136,9.717,29.03,11.457,36.292.122.551.244,1.022.336,1.436.046.2.076.365.122.532.107.458.183.81.229,1.022.031.122.061.2.061.23l-.03.014,120.9,7.553,4.821.305c-.076-.261-.181-.658-.32-1.144-2.624-9.353-16.048-57.422-15.27-60.229,1.175-4.256,12.862-7.17,17.389-5.734a3.773,3.773,0,0,1,.917.4c3.554,2.288,11.182,11.7,15,30.007C359.113,361.809,355.484,385.5,354.659,390.639Z" transform="translate(-172.22 -178.605)" fill="url(#p)"/><path d="M363.8,311.333l-2.3,8.849L344.35,386.176l-.427,1.648-1.663,6.406h.029L336.02,423l-.351,1.632-7.719,35.422-46.787,12.967c.4-.259,15.238-70.584,16.033-74.506.076-.334.139-.594.168-.763,0,0,.044-.29.122-.837.763-4.807,4.393-28.91,2.746-36.782-3.814-18.306-11.441-27.718-15-30.007a3.779,3.779,0,0,0-.917-.4l.078-.381,61.737-14.006Z" transform="translate(-114.97 -184.727)" fill="url(#n)"/><path d="M293.785,367.487c.008-.053.02-.121.029-.178l-.079,0Z" transform="translate(-108.364 -155.311)" fill="#bde6f8"/><path d="M291.759,367.8l-.061.284h.125c.038-.175.058-.276.058-.276Z" transform="translate(-109.434 -155.053)" fill="#bde6f8"/><path d="M208.586,413.7l-9.817-.537C199.5,413.2,203.071,413.4,208.586,413.7Z" transform="translate(-158.269 -131.217)" fill="#bde6f8"/><path d="M285.17,417.453l-11.623-.386C280.622,417.389,285.03,417.548,285.17,417.453Z" transform="translate(-118.972 -129.163)" fill="#bde6f8"/><g transform="translate(102.187 67.056)"><path d="M241.926,282.82c3.466-.255,3.78-9.661,0-9.661S238.458,283.075,241.926,282.82Z" transform="translate(-239.206 -271.844)" fill="#96d9f2"/><path d="M275.87,283.266c3.814-.259,5.086-10.43,0-10.938S272.057,283.525,275.87,283.266Z" transform="translate(-221.701 -272.29)" fill="#96d9f2"/><path d="M308.942,283.273c-4.069-.264-3.561-11.484,1.271-10.958S313.009,283.537,308.942,283.273Z" transform="translate(-203.997 -272.297)" fill="#96d9f2"/></g><g transform="translate(40.338 281.933)"><path d="M210.623,413.809v24.515h-5.782l-4.577-18.611-1.6-6.56.168.015c.732.032,4.3.23,9.809.535Z" transform="translate(-198.663 -413.153)" fill="#f5d198"/><path d="M210.623,413.809v11.412c-3.3-1.847-7.887-4.393-10.358-5.509l-1.6-6.56.168.015c.732.032,4.3.23,9.809.535Z" transform="translate(-198.663 -413.153)" fill="#f8c784"/></g><g transform="translate(154.507 287.899)"><path d="M285.189,417.459l-1.587,9.077-1.709,9.733h-6.316l-1.266-11.731-.808-7.473h.061C280.644,417.383,285.051,417.552,285.189,417.459Z" transform="translate(-273.503 -417.064)" fill="#f5d198"/><path d="M285.189,417.459l-1.587,9.077c-2.685-.442-6.544-1.327-9.29-2l-.808-7.473h.061C280.644,417.383,285.051,417.552,285.189,417.459Z" transform="translate(-273.503 -417.064)" fill="#f8c784"/></g><g transform="translate(200.867 275.328)"><path d="M316.006,408.823l-1.876,13-2.7,18.778h-7.537V412.18Z" transform="translate(-303.893 -408.823)" fill="#f5d198"/><path d="M316.006,408.823l-1.876,13c-3.646.731-7.658,1.509-10.236,2.105V412.179Z" transform="translate(-303.892 -408.823)" fill="#f8c784"/></g><g transform="translate(32.36 242.882)"><path d="M335.884,392.617l-.319,1.525-141.872-5.048c-.091-.519-.168-1.022-.259-1.541Z" transform="translate(-193.433 -387.554)" fill="#eef8fd"/></g><g transform="translate(174.842 238.273)"><path d="M333.041,384.533l-.351,1.632-45.857,9.367c.105-.548.227-1.083.336-1.632Z" transform="translate(-286.833 -384.533)" fill="#eef8fd"/></g><path d="M190.612,350.638c5.937-1.957-3.216-26.111-11.1-23.06S184.677,352.594,190.612,350.638Z" transform="translate(-169.681 -176.33)" fill="none" stroke="#eef8fd" stroke-linecap="round" stroke-linejoin="round" stroke-width="1"/><path d="M287.705,348.95c5.306-1.89-1.274-22.977-8.451-21.613S282.4,350.842,287.705,348.95Z" transform="translate(-117.264 -176.35)" fill="none" stroke="#eef8fd" stroke-linecap="round" stroke-linejoin="round" stroke-width="1"/><path d="M243.614,376.577c-.371-4.447-2.863-30.272-5.495-58.218-.034-.177-.067-.366-.1-.54,0,0-24.167.255-55.185,7.882,0,0,6.865,6.1,13.475,20.341,5.17,11.135,9.716,29.029,11.453,36.3.29.9.494,1.536.618,1.919l.133.422,35.129-7.772Z" transform="translate(-166.643 -181.319)" fill="url(#r)"/><g transform="translate(182.226 201.449)"><path d="M338.827,360.394l-.427,1.647L291.885,372.72a.8.8,0,0,1-.181.014h-.031c.076-.334.139-.593.168-.763,0,0,.044-.29.122-.837Z" transform="translate(-291.673 -360.394)" fill="#eef8fd"/></g><g transform="translate(26.792 201.478)"><path d="M204.794,362.945l-14.294-.961c-.183-.456-.427-.992-.717-1.571l14.66.978c.046.2.076.365.122.532C204.672,362.381,204.748,362.733,204.794,362.945Z" transform="translate(-189.783 -360.413)" fill="#eef8fd"/></g><g transform="translate(167.23 210.968)"><path d="M297.051,367.7c-.105.641-.166.992-.166.992l-.107.519-14.614-1.432c-.076-.261-.182-.658-.32-1.144Z" transform="translate(-281.843 -366.634)" fill="#eef8fd"/></g></g><g transform="translate(595.537 0)"><g transform="translate(44.937 107.31)"><path d="M372.821,578.372a1.845,1.845,0,0,1-1.673-1.977V130.024a1.7,1.7,0,1,1,3.348,0V576.4A1.844,1.844,0,0,1,372.821,578.372Z" transform="translate(-371.148 -128.048)" fill="#f5d198"/></g><path d="M349.394,433.8l5.579-14.223h57.171l6.972,14.223Z" transform="translate(-337.643 132.463)" fill="#96d9f2"/><path d="M435.264,180.266l-93.573.281c-.006-.969.6-7.1,1.71-16.915,2.456-22.173,7.4-63.22,13.345-105.754l58.448-.174,6.619,40.351Z" transform="translate(-341.691 -57.704)" fill="#fea"/><path d="M435.264,166.366l-93.573.281c-.006-.969.6-7.1,1.71-16.915,10.99,5.132,29.571,11.09,45.045,5.974,16.608-5.474,28.082-46.94,33.368-71.551Z" transform="translate(-341.691 -43.804)" fill="#ffe888"/><path d="M358.807,64.647l12.91-.039-8.377,77.843-9.138.027Z" transform="translate(-335.116 -54.076)" fill="#fff5ca"/></g><g transform="translate(145.332 38.887)"><g transform="translate(146.959)"><path d="M292.34,567.557l-5.776.41-1.03.076s-5.324-8.993-15.736-24.9c-10.43-15.925-17.754-32.165-26.094-54.136-8.335-21.988,2.02-38.923,2.02-38.923s-9.1-19.133-15.92-38.837c-6.047-17.466-17.145-48.636-19.6-55.487l-.484-1.37s-3.228,16.677-5.106,28.231c-.166,1.03-.4,2.419-.639,4.122-2.622,17.243-9.214,64.854-9.214,64.854,7.942,19.714,4.151,40.932-2.671,58s-27.653,56.65-27.653,56.65l-.484.093-4.639.857s6.067-138.146,6.442-166.756.563-89.242.563-89.242l5.7-20.86s-.011-.113-.027-.308c-.047-.3-.105-.847-.185-1.606-.206-1.823-.546-4.836-.967-8.734-.063-.514-.107-1.025-.168-1.574-1.513-13.768-3.93-36.655-5.518-55.1-.563-6.552-1.013-12.547-1.289-17.38a143.988,143.988,0,0,1-.014-14.72c.3-6.764,1-13.357,1.785-19.173,1.687-12.358,3.838-21.32,3.838-21.32l.076-.027c4.354-.94,8.91-2,13.417-3.06-.712,5.422-1.275,14.349-1.7,23.536-.316,6.715-.561,13.572-.741,19.3-.241,8.1-.363,13.949-.363,13.949l57.409-.958a133.852,133.852,0,0,1,.863-14.6c.714-6.372,1.8-12.537,3-18.166,2.069-9.621,4.461-17.626,5.884-22.039,3.7.8,7.58,1.669,11.371,2.514-1.092,4.508-2.363,11.87-3.577,20.269-.862,5.884-1.681,12.264-2.392,18.5-1.123,9.811-1.988,19.269-2.265,25.847-.363,8.947.079,25.578.624,40.307.322,8.433.668,16.242.924,21.638.015.531.046,1.034.075,1.512.166,3.67.288,5.9.288,5.9s.122.967.354,2.764c.073.452.133.947.192,1.5,2.943,22.562,16.6,128.056,18.97,153.405C274.531,470.922,292.34,567.557,292.34,567.557Z" transform="translate(-134.287 -49.492)" fill="#181515"/><path d="M202.374,304.268c-2.622,17.243-9.214,64.854-9.214,64.854,7.942,19.714,4.151,40.932-2.671,58s-27.653,56.65-27.653,56.65l-.484.093c6.476-15.71,24.757-61.072,27.487-79.105,3.321-21.981,0-38.286,0-38.286Z" transform="translate(-132.689 32.981)" fill="#d2a410"/><path d="M269.034,496.706l-1.03.076s-5.324-8.993-15.736-24.9c-10.43-15.925-17.754-32.165-26.094-54.136-8.335-21.989,2.02-38.923,2.02-38.923s-9.1-19.133-15.92-38.836c-6.047-17.466-17.145-48.636-19.6-55.487l.323-1.565,41.55,94.376c-4.639,29.944,5.02,49.272,10.222,68.6C248.887,461.217,262.956,486.06,269.034,496.706Z" transform="translate(-116.756 21.769)" fill="#d2a410"/><path d="M240.133,150.454c-.09.291-.178.574-.288.9-3.03,9.562-9.458,32.355-9.458,53.907l-57.41.958s.831-41.778,2.8-56.787c2.453-.575,5.066-1.19,7.7-1.8,7.321-1.719,14.886-3.464,20.117-4.293a21.957,21.957,0,0,0,.65,5.078c.76,1.712,2.532,5.063,8.172,4.242s7.548-3.48,7.548-4.046c0-.136.09-1.112.214-2.479C220.259,146.135,229.34,148.094,240.133,150.454Z" transform="translate(-127.105 -51.593)" fill="#3cb149"/><path d="M170.977,182.673a157.583,157.583,0,0,0-.453,21.9c.276,4.833.726,10.828,1.289,17.38l-.351-.146h-.014a29.807,29.807,0,0,1-6.547-.923c-10.778-2.753-18.254-10.624-18.254-10.624-.378-25.777,5.583-45.918,7.96-49.475,3.155-4.72,5.307-7.954,20.285-11.17.438-.093.877-.18,1.318-.282l-.076.027A249.751,249.751,0,0,0,170.977,182.673Z" transform="translate(-140.951 -48.438)" fill="#3cb149"/><path d="M262.128,180.909c-.015,12.511-4.091,34.336-4.091,34.336-4.834,2.146-19.223,4.235-27.485,5.3-3.591.47-6.033.741-6.033.741-2.5,8.119-4.592,31.988-4.717,33.262v.063l-.075-.037c-.468-12.564-.848-26.493-.744-35.877.03-1.628.073-3.114.121-4.43.7-16.738,5.158-52,8.235-64.614C238.708,152.214,262.165,157.038,262.128,180.909Z" transform="translate(-102.938 -48.273)" fill="#3cb149"/><path d="M239.134,175.061c-3.609,10.657-7.447,27.12-8.582,32.124-3.591.47-6.033.741-6.033.741-2.5,8.119-4.592,31.988-4.717,33.262v.063l-.075-.037c-.468-12.564-.848-26.493-.744-35.877.047-.093.073-.171.121-.258C228.838,183.869,239.134,175.061,239.134,175.061Z" transform="translate(-102.938 -34.918)" fill="#22852d"/><path d="M165.526,210.47l-.351-.146h-.014a29.809,29.809,0,0,1-6.548-.923c-.168-1.437.592-26.12,6.076-38.212a157.582,157.582,0,0,0-.453,21.9C164.513,197.923,164.963,203.918,165.526,210.47Z" transform="translate(-134.664 -36.954)" fill="#22852d"/><path d="M236.514,150.454c-.09.291-.178.574-.288.9-7.348,2.738-18.81,6.108-30.483,5.911-13.861-.214-22.195-6.174-25.879-9.638,7.321-1.719,14.886-3.464,20.117-4.293a21.955,21.955,0,0,0,.65,5.078c.76,1.712,2.532,5.063,8.172,4.242s7.548-3.48,7.548-4.046c0-.136.09-1.112.214-2.479C216.639,146.135,225.721,148.094,236.514,150.454Z" transform="translate(-123.486 -51.593)" fill="#3cb149"/><g transform="translate(36.38 227.934)"><path d="M248.162,234.122a192.854,192.854,0,0,1-42.08,4.534,198.761,198.761,0,0,1-39.16-3.788c-.063-.514-.107-1.025-.168-1.574,10.662,2.241,43.81,7.774,81.333-.683C248.1,233.141,248.133,233.644,248.162,234.122Z" transform="translate(-166.755 -232.61)" fill="#3d66b0"/><path d="M248.606,240.777a231.4,231.4,0,0,1-39.279,3.806v53.333a.75.75,0,0,1-.76.76.758.758,0,0,1-.755-.76V244.608c-1.472.02-2.927.037-4.322.037-18.982,0-30.394-1.788-35.807-2.943-.047-.3-.105-.847-.185-1.606,5.55,1.213,18.66,3.368,41.053,2.982a232.433,232.433,0,0,0,39.861-3.8C248.487,239.734,248.546,240.229,248.606,240.777Z" transform="translate(-166.364 -229.104)" fill="#3d66b0"/></g><path d="M247.939,127.591C245,135,236.28,135.569,236.28,135.569s-.088.351-.272.967v.017c-1.1,3.643-5.594,16.541-15.466,22.321a20.16,20.16,0,0,1-10.608,2.833,22.024,22.024,0,0,1-7.354-1.3c-13.929-5.013-18.6-22.759-18.6-22.759h-.426c-6.6-.214-9.159-7.663-9.159-14.007a20.636,20.636,0,0,1,.5-4.593v-.018a11.453,11.453,0,0,1,.807-2.317c.664-1.315,1.545-2.111,2.589-2,3.9.41,4.744,6.535,4.912,10.067-.027.812-.027,1.634.017,2.455,0,0,.1-.394.316-1.086.973-3.413,4.1-14.1,6.688-20.134,3.138-7.278,3.985-9.1,7.214-7.782s23.3,3.986,26.715,2.079a16.091,16.091,0,0,1,7.153,7.165c.529,1.156,1.018,2.352,1.454,3.568A81.642,81.642,0,0,1,235.4,120s.017.052.046.178q.137.629.278,1.233a.772.772,0,0,1,.027.145c.619,2.822.909,4.712.909,4.712s3.033-8.894,6.625-9.852a3.875,3.875,0,0,1,1.5-.06C247.863,116.848,250.472,121.226,247.939,127.591Z" transform="translate(-126.36 -75.502)" fill="#f1b5ab"/><path d="M244.772,124.054a3.876,3.876,0,0,0-1.5.059c-3.593.958-6.625,9.852-6.625,9.852a94.685,94.685,0,0,0-2.651-11.46c-.366-1.242-.79-2.514-1.248-3.771a18.862,18.862,0,0,0-1.454-3.568A16.091,16.091,0,0,0,224.136,108c-3.411,1.907-23.5-.761-26.715-2.079s-4.076.5-7.214,7.782c-1.289,3-2.7,7.144-3.925,10.965-1.744,5.438-3.078,10.254-3.078,10.254s.046-1.027-.017-2.455c-.168-3.532-1.014-9.656-4.912-10.067-1.043-.11-1.925.686-2.589,2a8.359,8.359,0,0,0-.807,2.317c-1.271-2.479.276-8.3,3.017-14.538.851-1.959,1.82-3.942,2.851-5.884,4.351-8.151,9.656-11.94,14.007-10.6A18.213,18.213,0,0,1,209.61,83.567c11.992-1.9,22.289,3.6,29.11,13.64,2.85,4.2,4.378,9.562,5.187,14.4A66.534,66.534,0,0,1,244.772,124.054Z" transform="translate(-126.342 -83.195)" fill="#654526"/><path d="M174.727,111.728v.008h0Z" transform="translate(-126.186 -68.201)" fill="#983222"/><path d="M180.172,115.49c-.026.83-.021,1.649.023,2.462C180.194,117.952,180.24,116.933,180.172,115.49Z" transform="translate(-123.333 -66.224)" fill="#983222"/><path d="M170.629,421.938s-10.442.114-23.113,10.354h25.953A58.652,58.652,0,0,0,170.629,421.938Z" transform="translate(-140.485 94.818)" fill="#214294"/><path d="M241.811,423.388s3.7-3.56,12.61-1.1a19.979,19.979,0,0,1,12.314,10.277h-23.25Z" transform="translate(-90.932 94.546)" fill="#214294"/><path d="M171.553,258.778a40.8,40.8,0,0,0,.747,5.536c-8.535-1.7-26.535-14.019-26.535-14.019a38.24,38.24,0,0,1-2-8.175,78.093,78.093,0,0,1-.851-13.051c.185-14.026,1.336-31.834,5.687-39.8,0,0,7.476,7.87,18.254,10.624a29.808,29.808,0,0,0,6.547.923h.014c1.439,5.063-.543,25.793-.741,27.718a1.318,1.318,0,0,0-.014.153c3.228,1.455,6.712,5.756,7.684,7.014C178.743,237.465,170.676,244.512,171.553,258.778Z" transform="translate(-142.907 -27.45)" fill="#f1b5ab"/><path d="M179.7,162.907c-.316,6.715-.561,13.572-.741,19.3l-16.675.743c.3-6.764,1-13.357,1.785-19.173A37.762,37.762,0,0,1,179.7,162.907Z" transform="translate(-132.725 -41.536)" fill="#fcca25"/><path d="M227.853,163.191c-.862,5.884-1.681,12.264-2.392,18.5-3.943-.214-9.936-.59-14.285-1.077.714-6.372,1.8-12.537,3-18.166A130.445,130.445,0,0,1,227.853,163.191Z" transform="translate(-107.031 -41.547)" fill="#fcca25"/><g transform="translate(42.458 166.218)"><path d="M176.332,252.2a.752.752,0,0,1-.741-.6c-2.233-10.3-4.741-53.863-4.85-55.718a.771.771,0,0,1,.214-.574.78.78,0,0,1,.566-.223c3.731.1,7.565.163,11.386.163a393.622,393.622,0,0,0,50.134-3.089.73.73,0,0,1,.595.172.754.754,0,0,1,.269.557l1.768,54.691a.751.751,0,0,1-.7.78L176.38,252.2ZM172.3,196.63c.357,6.044,2.627,43.6,4.639,54l57.191-3.736-1.716-53.126a401.415,401.415,0,0,1-49.51,2.993C179.347,196.766,175.788,196.721,172.3,196.63Z" transform="translate(-170.739 -192.154)" fill="#3d66b0"/></g><g transform="translate(120.82 130.496)"><path d="M222.867,212.014a.627.627,0,0,1-.191-.027.753.753,0,0,1-.543-.921c.319-1.214.751-3.089,1.286-5.388,2.39-10.3,6.84-29.464,11.669-36.606a.762.762,0,0,1,1.053-.206.753.753,0,0,1,.2,1.054c-4.666,6.911-9.078,25.9-11.446,36.1-.537,2.317-.978,4.209-1.3,5.431A.764.764,0,0,1,222.867,212.014Z" transform="translate(-222.107 -168.737)" fill="#cc4527"/></g><g transform="translate(76.22 83.372)"><path d="M210.834,137.847c-.165,1.712-.42,4.328-.679,6.816-.154,1.6-.307,3.123-.426,4.346-.124,1.367-.214,2.343-.214,2.479,0,.566-1.895,3.223-7.548,4.046s-7.412-2.531-8.172-4.242a21.96,21.96,0,0,1-.65-5.078c-.047-.633-.081-1.294-.11-1.927-.09-1.907-.148-3.762-.165-4.908a22.023,22.023,0,0,0,7.354,1.3A20.159,20.159,0,0,0,210.834,137.847Z" transform="translate(-192.871 -137.847)" fill="#f1b5ab"/><path d="M210.834,137.847c-.165,1.712-.42,4.328-.679,6.816-8.49,2.668-14.28.958-17.119-.377-.09-1.907-.148-3.762-.165-4.908a22.023,22.023,0,0,0,7.354,1.3A20.159,20.159,0,0,0,210.834,137.847Z" transform="translate(-192.871 -137.847)" fill="#f5948d"/></g><path d="M183.555,131.837c-6.6-.214-9.159-7.663-9.159-14.007a20.637,20.637,0,0,1,.5-4.593v-.018a11.453,11.453,0,0,1,.807-2.317c.664-1.315,1.545-2.111,2.589-2,3.9.41,4.744,6.535,4.912,10.067-.027.812-.027,1.634.017,2.455,0,0,.1-.394.316-1.086A53.042,53.042,0,0,0,183.555,131.837Z" transform="translate(-126.36 -69.692)" fill="#f5948d"/><path d="M226.8,121.224c-2.941,7.406-11.659,7.978-11.659,7.978s-.089.351-.272.967a44.215,44.215,0,0,0-.258-14.976c.619,2.822.909,4.712.909,4.712s3.033-8.894,6.625-9.852a3.875,3.875,0,0,1,1.5-.06C226.728,110.481,229.336,114.86,226.8,121.224Z" transform="translate(-105.224 -69.135)" fill="#f5948d"/><path d="M164.427,224.878a10.536,10.536,0,0,0-4.746,1.161c.882-4.668-.424-22.022-1.074-29.8a29.807,29.807,0,0,0,6.548.923h.014C166.607,202.223,164.625,222.953,164.427,224.878Z" transform="translate(-134.657 -23.79)" fill="#f5948d"/><path d="M172,246.11c-8.535-1.7-26.535-14.019-26.535-14.019a38.242,38.242,0,0,1-2-8.175c4.262,3.788,15.874,13.324,27.786,16.659A40.8,40.8,0,0,0,172,246.11Z" transform="translate(-142.611 -9.245)" fill="#f5948d"/><g transform="translate(102.235 166.972)"><path d="M262.787,192.648a229.642,229.642,0,0,1-7.46,32.373c-5.5,17.635-10.81,31.634-10.81,31.634s0,5.31-6.822,22.936a120.368,120.368,0,0,1-11.158,22.451c-.241-1.934-1.194-6.483-5.034-14.43-2.728-5.635-5.745-8.79-8.2-10.534a13.691,13.691,0,0,0-3.38-1.806c3.834-10.637,13.37-24.484,13.37-24.484s.319-6.929,1.259-18.842c.125-1.274,2.215-25.143,4.717-33.262,0,0,2.455-.272,6.081-.741C243.626,196.883,257.953,194.794,262.787,192.648Z" transform="translate(-209.924 -192.648)" fill="#f1b5ab"/><path d="M235.35,196.119c-3.715,14.282-8.811,44.4-9.039,56.514L213.3,275.255a13.692,13.692,0,0,0-3.38-1.806c3.834-10.637,13.37-24.484,13.37-24.484s.319-6.929,1.259-18.842c.125-1.274,2.215-25.143,4.717-33.262C229.269,196.86,231.724,196.589,235.35,196.119Z" transform="translate(-209.924 -190.824)" fill="#f5948d"/></g><path d="M192.835,116.814c0,2.2-.624,3.977-1.4,3.977s-1.4-1.779-1.4-3.977.627-3.977,1.4-3.977S192.835,114.617,192.835,116.814Z" transform="translate(-118.141 -67.618)" fill="#1e1724"/><path d="M208.972,116.814c0,2.2-.632,3.977-1.4,3.977s-1.4-1.779-1.4-3.977.624-3.977,1.4-3.977S208.972,114.617,208.972,116.814Z" transform="translate(-109.661 -67.618)" fill="#1e1724"/><g transform="translate(51.302 43.157)"><g transform="translate(33.522 2.309)"><path d="M203.243,132.362a24.883,24.883,0,0,1-4.419-.42.37.37,0,0,1-.307-.433.376.376,0,0,1,.438-.31c5.449.969,8.207-.034,9.11-.488-4.27-5.49-5.26-16.811-5.3-17.3a.379.379,0,1,1,.755-.061c.012.113,1.056,12.067,5.4,17.215a.372.372,0,0,1,.09.291.377.377,0,0,1-.142.256C208.784,131.183,207.179,132.362,203.243,132.362Z" transform="translate(-198.511 -112.999)" fill="#983222"/></g><g transform="translate(60.801 1.676)"><path d="M216.773,123.276h-.059a.383.383,0,0,1-.316-.436c.773-4.67,4.8-9.887,4.966-10.11a.382.382,0,1,1,.6.471c-.04.052-4.076,5.286-4.818,9.759A.373.373,0,0,1,216.773,123.276Z" transform="translate(-216.393 -112.584)" fill="#983222"/></g><path d="M179.318,124.41h-.024a.382.382,0,0,1-.355-.4c.381-5.336-2.346-11.931-2.369-12a.377.377,0,1,1,.7-.291c.116.275,2.824,6.816,2.43,12.343A.379.379,0,0,1,179.318,124.41Z" transform="translate(-176.537 -111.485)" fill="#983222"/><g transform="translate(0.002 5.659)"><path d="M177.9,119.314a1.591,1.591,0,0,1-.9-.232,1.1,1.1,0,0,1-.467-.975c0-1.658,1.86-2.8,1.934-2.856a.383.383,0,0,1,.4.65c-.018.009-1.584.982-1.584,2.206,0,.255.1.325.14.349.314.215,1.149.043,1.64-.145a.381.381,0,1,1,.272.711A4.407,4.407,0,0,1,177.9,119.314Z" transform="translate(-176.538 -115.195)" fill="#983222"/></g><g transform="translate(61.523 5.985)"><path d="M218.962,119.594a5.06,5.06,0,0,1-1.864-.427.366.366,0,0,1-.2-.488.375.375,0,0,1,.5-.2c.459.2,1.881.633,2.354.1.343-.394-.592-1.738-1.368-2.525a.379.379,0,0,1,0-.529.375.375,0,0,1,.542,0c.4.4,2.352,2.471,1.4,3.548A1.727,1.727,0,0,1,218.962,119.594Z" transform="translate(-216.866 -115.408)" fill="#983222"/></g></g><path d="M185.783,111.727a3.879,3.879,0,0,1,.508-.368,12.53,12.53,0,0,1,1.452-.848,23.527,23.527,0,0,1,2.156-.949c.409-.128.836-.256,1.278-.377a10.211,10.211,0,0,1,1.346-.316c.458-.07.915-.128,1.373-.2a5.78,5.78,0,0,1,1.344-.079,14.3,14.3,0,0,1,2.375.172c1.378.3,2.255.563,2.255.563a.574.574,0,0,1,.374.712.554.554,0,0,1-.523.392l-.111.009s-.88.017-2.127-.061a18.507,18.507,0,0,0-2.152.111,5.885,5.885,0,0,0-1.2.137c-.407.059-.827.128-1.24.189a11.253,11.253,0,0,0-1.228.264c-.412.1-.805.2-1.194.284-.751.255-1.5.384-2.09.641-.613.2-1.127.349-1.464.5-.36.137-.563.2-.563.2a.563.563,0,0,1-.74-.334.573.573,0,0,1,.153-.622Z" transform="translate(-120.487 -69.85)" fill="#51351b"/><path d="M202.4,111.046s.185-.156.51-.419c.143-.13.323-.275.526-.455a8.616,8.616,0,0,1,.815-.555,13.685,13.685,0,0,1,2.259-1.155c.447-.145.917-.273,1.391-.4a5.28,5.28,0,0,1,1.465-.282c.5-.053,1-.085,1.489-.137a8.907,8.907,0,0,1,1.436.076c.464.052.909.1,1.333.156a4.6,4.6,0,0,1,1.156.29c1.4.471,2.288.857,2.288.857a.568.568,0,0,1,.3.741.583.583,0,0,1-.542.343h-.1s-.938-.035-2.261-.171a4.716,4.716,0,0,0-1.059-.078l-1.187.026a6.981,6.981,0,0,0-1.246.041c-.421.052-.851.113-1.278.163-.866.05-1.675.386-2.482.5-.76.273-1.518.436-2.133.7-.319.11-.616.212-.88.313-.285.114-.535.217-.741.291a5.329,5.329,0,0,1-.621.2.585.585,0,0,1-.682-.453.573.573,0,0,1,.2-.563Z" transform="translate(-111.777 -70.357)" fill="#51351b"/><path d="M216.819,127.24a29.222,29.222,0,0,1-1.64,4.5c-1.895,4.191-5.548,9.8-11.627,10.041-5.521.214-9.037-3.823-11.051-7.373a24.9,24.9,0,0,1-2.212-5.141C190.663,129.139,208.478,130.157,216.819,127.24Z" transform="translate(-118.008 -60.049)" fill="#aa2423"/><path d="M216.819,127.24a29.222,29.222,0,0,1-1.64,4.5,47.049,47.049,0,0,1-22.678,2.668,24.9,24.9,0,0,1-2.212-5.141C190.663,129.139,208.478,130.157,216.819,127.24Z" transform="translate(-118.008 -60.049)" fill="#fff"/><g transform="translate(57.62 248.044)"><path d="M190.137,249.764c-2.148,0-5.31-.639-9.292-3.277a.38.38,0,0,1,.421-.632c7.275,4.825,11.7,2.651,11.745,2.638a.365.365,0,0,1,.508.16.371.371,0,0,1-.162.5A7.332,7.332,0,0,1,190.137,249.764Z" transform="translate(-180.678 -245.792)" fill="#983222"/></g><path d="M197.571,263.965a21.3,21.3,0,0,1,2.958.223A4.418,4.418,0,0,1,197.571,263.965Z" transform="translate(-114.181 11.801)" fill="#761815"/><path d="M186.282,114.683c-1.744,5.438-3.078,10.254-3.078,10.254s.046-1.027-.017-2.455c-.168-3.532-1.014-9.657-4.912-10.067-1.043-.11-1.925.686-2.589,2a8.359,8.359,0,0,0-.807,2.317c-1.271-2.479.276-8.3,3.017-14.538A33.427,33.427,0,0,0,186.282,114.683Z" transform="translate(-126.342 -73.209)" fill="#4f331b"/><path d="M224.254,114.266a3.875,3.875,0,0,0-1.5.059c-3.593.958-6.625,9.852-6.625,9.852a94.682,94.682,0,0,0-2.651-11.46,57.907,57.907,0,0,0,9.916-10.9A66.535,66.535,0,0,1,224.254,114.266Z" transform="translate(-105.824 -73.407)" fill="#4f331b"/><path d="M202.773,433.2a.18.18,0,0,1,.058-.015,7.081,7.081,0,0,0-.31-.77C202.614,432.679,202.7,432.941,202.773,433.2Z" transform="translate(-111.58 100.322)" fill="#b75349"/><path d="M231.684,431.953a2.629,2.629,0,0,0-.323-.7S231.479,431.55,231.684,431.953Z" transform="translate(-96.424 99.712)" fill="#732723"/><path d="M240.155,431.544a2.572,2.572,0,0,0-.474-1.162A9.394,9.394,0,0,0,240.155,431.544Z" transform="translate(-92.052 99.255)" fill="#732723"/><path d="M241.761,427.8s-.122-.037-.38-.1C241.5,427.737,241.66,427.761,241.761,427.8Z" transform="translate(-91.158 97.847)" fill="#732723"/><path d="M203.024,434.912a2.482,2.482,0,0,1-.815.984A1.743,1.743,0,0,0,203.024,434.912Z" transform="translate(-111.744 101.635)" fill="#732723"/><path d="M202.519,432.412h0Z" transform="translate(-111.581 100.322)" fill="#732723"/><g transform="translate(51.502 154.552)"><path d="M236.326,553.885a3.291,3.291,0,0,1-.407.024,2.377,2.377,0,0,1-2.227-2.148l-25.85-165.2L176.7,187.611a2.656,2.656,0,0,1,1.837-3.068,2.368,2.368,0,0,1,2.654,2.121l32.654,208.7,24.317,155.452A2.622,2.622,0,0,1,236.326,553.885Z" transform="translate(-176.668 -184.507)" fill="#81d2eb"/><path d="M225.587,484.281a3.292,3.292,0,0,1-.407.025,2.377,2.377,0,0,1-2.227-2.148l-25.85-165.2c1.881,2.758,3.913,5.709,6,8.81l24.317,155.452A2.622,2.622,0,0,1,225.587,484.281Z" transform="translate(-165.929 -114.904)" fill="#5dc8e0"/></g><g transform="translate(68.127 514.638)"><path d="M196.579,437.368c-.107-.387-.238-.783-.378-1.182h-.006c-1.487-4.13-4.743-8.219-7.194-7.408-4.267,1.432,1.91,17.131,6.48,14.642a3.735,3.735,0,0,0,1.23-1.484A7.754,7.754,0,0,0,196.579,437.368Z" transform="translate(-187.566 -416.28)" fill="#1da8b7"/><path d="M285.671,421.389v8.372s-.183-.053-.572-.143c-.233-.041-.476-.1-.783-.131-8.338-1.12-39.3,3.641-62.611,7.6-11.734,1.972-21.519,3.789-25.519,4.513a11.81,11.81,0,0,0-.477-1.137c-1.487-4.14-4.757-8.23-7.206-7.4,6.564-2.268,13.1-4.14,19.5-5.7C249.847,417.249,285.671,421.389,285.671,421.389Z" transform="translate(-187.074 -420.55)" fill="#81d2eb"/><path d="M221.7,434.744c-11.734,1.973-21.519,3.789-25.519,4.512a11.813,11.813,0,0,0-.477-1.137c-1.487-4.14-4.757-8.23-7.206-7.4,6.564-2.268,13.1-4.14,19.5-5.7C212.35,428.3,217.384,431.809,221.7,434.744Z" transform="translate(-187.074 -418.204)" fill="#63c4ba"/><g transform="translate(7.922 8.774)"><path d="M284.964,437.443c-2.491,1.777-4.343-.943-5.278-2.929A3.824,3.824,0,0,0,279,432.8a11.261,11.261,0,0,0,.688,1.712,4.267,4.267,0,0,1-.712,2.929c-1.734,2.644-11.731-2.694-11.731-2.694a5.29,5.29,0,0,1-2.583,4.188c-1.85,1.173-3.542-1.521-4.366-3.132a4.216,4.216,0,0,0-.476-1.056s.178.445.476,1.056c.418,1.341.346,3.6-3.907,4.953-6.284,2.012-10.013-1.821-10.013-1.821s-.85,2.683-5.129,3.833-9.138-3.833-9.138-3.833a7.442,7.442,0,0,1-1.919,4.746,5.22,5.22,0,0,1-1.8,1.255c-3.5,1.509-8.572-2.465-9.1-2.892.14.333.737,2.3-6.326,4a18.989,18.989,0,0,1-13.151-1.379c-4,3.06-7.042,0-7.042,0a2.708,2.708,0,0,0,1.234-1.484,6.454,6.454,0,0,0-.044-4.6c4.3-.789,15.27-2.787,28.167-4.956,22.954-3.867,51.944-8.223,59.963-7.159.322.043.6.09.783.131.2.052.433.09.572.143C283.434,426.739,288.669,434.76,284.964,437.443Z" transform="translate(-192.759 -426.301)" fill="#a16dad"/><path d="M230.187,441.16a5.222,5.222,0,0,1-1.8,1.256c-3.5,1.509-8.572-2.465-9.1-2.892.14.332.737,2.3-6.326,4a18.989,18.989,0,0,1-13.151-1.379c-4,3.06-7.042,0-7.042,0a2.708,2.708,0,0,0,1.234-1.484,6.454,6.454,0,0,0-.044-4.6c4.3-.789,15.27-2.787,28.167-4.956A59.774,59.774,0,0,0,230.187,441.16Z" transform="translate(-192.759 -423.779)" fill="#8362a9"/></g></g><g transform="translate(28.583 207.877)"><path d="M207,247.9a2.805,2.805,0,0,1-.746.549,3.865,3.865,0,0,1,.241.383c1.943,3.19-.118,6.406-.7,7.2l-.134.182a3.438,3.438,0,0,1,.224.589,5.962,5.962,0,0,1,.368,2.087,4.183,4.183,0,0,1-3.06,3.78c-.564.177-.38,4.346-7.2,3.789-6.825-.572-14.779-9.493-14.779-9.493-7.387-3.969-18.755-8.517-18.755-8.517a38.5,38.5,0,0,1-.716-5.143c-1.06-14.539,7.139-21.688,8.763-23.467.186-.18.287-.317.287-.378l16.285,12.5c11.946-9.458,16.312-6.824,19.525-1.7,2.592,4.139,1,9.867.3,11.93-.136.352-.227.592-.268.711a.415.415,0,0,1-.034.078C208.491,245.644,207.72,247.174,207,247.9Z" transform="translate(-161.644 -219.462)" fill="#ffc72a"/><g transform="translate(28.564 14.483)"><g transform="translate(0 18.766)"><path d="M196.042,245.35a14.611,14.611,0,0,1-4.816.806,16.165,16.165,0,0,1-10.718-4.233.367.367,0,0,1-.047-.531.378.378,0,0,1,.529-.046c6.517,5.57,12.8,4.032,14.962,3.234l-.134.181A3.43,3.43,0,0,1,196.042,245.35Z" transform="translate(-180.369 -241.258)" fill="#983222"/></g><g transform="translate(4.26 9.576)"><path d="M194.943,240.162a3.829,3.829,0,0,1,.241.383,8.092,8.092,0,0,1-1.394.121c-2.275,0-5.776-.915-10.491-4.763a.37.37,0,0,1-.044-.534.363.363,0,0,1,.531-.04c6.32,5.138,10.325,4.787,11.9,4.284A2.807,2.807,0,0,1,194.943,240.162Z" transform="translate(-183.161 -235.233)" fill="#983222"/></g><g transform="translate(8.635)"><path d="M194.085,237.2c-.136.352-.227.592-.268.711-1.956-.377-5.49-3.8-7.748-8.4a.384.384,0,0,1,.168-.514.374.374,0,0,1,.511.181C189.143,234.057,192.8,237.139,194.085,237.2Z" transform="translate(-186.029 -228.956)" fill="#983222"/></g></g><path d="M206.217,250.676a4.183,4.183,0,0,1-3.06,3.78c-.564.177-.38,4.346-7.2,3.789-6.825-.572-14.779-9.493-14.779-9.493-7.387-3.969-18.755-8.517-18.755-8.517a38.51,38.51,0,0,1-.715-5.143C167.59,238.8,191.56,254.533,206.217,250.676Z" transform="translate(-161.612 -211.248)" fill="#dd8426"/></g><g transform="translate(66.16 249.245)"><path d="M239.057,274.814s-1.286,1.786-3.835,5.03c-.363.467-.772.979-1.185,1.519-1.783,2.242-4.03,4.994-6.728,8.227-7.777,9.3-15.359,18.575-22.739,20.662-5.765,1.626-9.991.471-10.277-1.887a2.638,2.638,0,0,1,.438-1.806,2.218,2.218,0,0,1,.287-.452,5.722,5.722,0,0,1-.622-.293h-.015c-1.3-.658-4.059-2.5-2.894-6.174,0,0-.031-.026-.073-.069a6.372,6.372,0,0,1-.517-.548c-1.152-1.29-3.445-4.355-2.259-7.3,0-.018,0-.018.015-.018a2.581,2.581,0,0,1,.177-.394s-.148-.154-.391-.427c-1.014-1.179-3.591-4.773-1.123-8.492,2.729-4.088,7.766-9.354,16.192-9.289a21.325,21.325,0,0,1,2.958.223s7.582-13.29,10.415-18.4c.075-.131.137-.256.214-.375.239-.455.484-.882.712-1.312,2.21-4.13,3.24-6.653,3.24-6.653a7.5,7.5,0,0,1,1.306.351,13.93,13.93,0,0,1,3.744,2.079c2.383,1.788,5.249,4.9,7.836,10.261,3.672,7.6,4.7,12.1,4.993,14.166a2.172,2.172,0,0,1,.041.264A10.317,10.317,0,0,1,239.057,274.814Z" transform="translate(-186.277 -246.58)" fill="#ffc72a"/><g transform="translate(2.161 39.352)"><path d="M197.351,272.675a.377.377,0,0,1-.285.452,23.471,23.471,0,0,0-9.159,5.02,2.6,2.6,0,0,1,.177-.394s-.148-.154-.391-.427a24.139,24.139,0,0,1,9.2-4.941A.37.37,0,0,1,197.351,272.675Z" transform="translate(-187.693 -272.376)" fill="#983222"/></g><g transform="translate(4.618 46.74)"><path d="M200.205,277.553a.386.386,0,0,1-.32.427,17.379,17.379,0,0,0-10.064,5.49,6.388,6.388,0,0,1-.517-.548,18.027,18.027,0,0,1,10.476-5.7A.4.4,0,0,1,200.205,277.553Z" transform="translate(-189.304 -277.219)" fill="#983222"/></g><g transform="translate(8.118 55.457)"><path d="M199.816,283.607a14.469,14.469,0,0,1-7.882,3.847,2.226,2.226,0,0,1,.287-.452,5.707,5.707,0,0,1-.622-.293c1.67-.154,4.4-.784,7.731-3.686a.38.38,0,1,1,.487.583Z" transform="translate(-191.598 -282.933)" fill="#983222"/></g><path d="M219.14,249.01c-4.393,5.654-16.642,23.409-19.63,24.314,0,0,7.582-13.29,10.415-18.4.075-.131.137-.256.214-.375.24-.455.484-.882.712-1.312,2.21-4.13,3.24-6.653,3.24-6.653a7.5,7.5,0,0,1,1.306.351A13.929,13.929,0,0,1,219.14,249.01Z" transform="translate(-179.322 -246.58)" fill="#dd8426"/><path d="M236.3,265.562s-1.286,1.786-3.835,5.03c-.363.467-.772.979-1.185,1.519-1.783,2.243-4.03,4.995-6.727,8.227-7.777,9.3-15.359,18.575-22.739,20.661-5.765,1.626-9.991.471-10.277-1.887,2.894-.976,6.727-2.276,11.746-4.006,12.814-4.395,27.578-23.517,32.885-30.922a2.185,2.185,0,0,1,.041.264A10.315,10.315,0,0,1,236.3,265.562Z" transform="translate(-183.515 -237.328)" fill="#dd8426"/></g></g><g transform="translate(0 388.315)"><path d="M67.242,337.743,63.207,476.729s-2.728-.024-5.978-.043c-4.381-.024-9.716-.035-10.582.043-1.3.119,15.1-104.192,19.511-132.149C66.841,340.24,67.242,337.743,67.242,337.743Z" transform="translate(-46.573 -337.743)" fill="#ff9b24"/><path d="M98.765,436.555H79.57L76,428.507l.7-14.317H93.4Z" transform="translate(-31.108 -297.569)" fill="#ff9b24"/><path d="M62.487,344.58c.683-4.34,1.085-6.837,1.085-6.837L59.536,476.729s-2.728-.024-5.978-.043Z" transform="translate(-42.902 -337.743)" fill="#ff9b24" opacity="0.4" style="mix-blend-mode:multiply;isolation:isolate"/><path d="M86.8,436.555H79.57L76,428.507l.7-14.317h7.251Z" transform="translate(-31.108 -297.569)" fill="#ff9b24" opacity="0.4" style="mix-blend-mode:multiply;isolation:isolate"/><path d="M146.224,476.447H116.514V454.364H86.44l-1.1,22.364H57.477l4.034-138.985h63.44Z" transform="translate(-40.843 -337.743)" fill="#ffc72a"/><path d="M1.109,0H39.55a1.11,1.11,0,0,1,1.11,1.11V6.791A1.109,1.109,0,0,1,39.551,7.9H1.109A1.109,1.109,0,0,1,0,6.791V1.109A1.109,1.109,0,0,1,1.109,0Z" transform="translate(34.34 8.683)" fill="#384c9f"/><path d="M124.213,476.447H99.362l1.843-138.7h1.736Z" transform="translate(-18.832 -337.743)" fill="#f6b119"/><path d="M63.16,408.456h63.814L92.528,361.015Z" transform="translate(-37.856 -325.514)" fill="#93d6e8"/><g transform="translate(31.137 41.025)"><path d="M118.311,403.312H67.41a.415.415,0,0,1-.372-.226.411.411,0,0,1,.008-.418l23.417-37.834a.419.419,0,0,1,.348-.2.436.436,0,0,1,.358.172l27.415,37.75a.416.416,0,0,1,.149.323A.429.429,0,0,1,118.311,403.312Zm-50.142-.847h49.3L90.852,365.817Z" transform="translate(-66.984 -364.636)" fill="#3a68b1"/></g><g transform="translate(20.243)"><path d="M141,472.3a.469.469,0,0,1-.093.34.454.454,0,0,1-.322.139H118.267a.417.417,0,0,1-.423-.421V451.329H80.573v21.31a.428.428,0,0,1-.427.428H60.269a.409.409,0,0,1-.307-.137.362.362,0,0,1-.119-.3l4.544-134.89h.847l-4.526,134.48H79.727V450.9a.429.429,0,0,1,.42-.427h38.121a.428.428,0,0,1,.426.427v21.04h21.4l-20.007-134.2h.842Z" transform="translate(-59.842 -337.743)" fill="#ffdb76"/></g><path d="M67.679,347.092c0,1.722-.715,3.115-1.591,3.115s-1.585-1.393-1.585-3.115c0-1.707.708-3.1,1.585-3.1S67.679,345.385,67.679,347.092Z" transform="translate(-37.151 -334.461)" fill="#ffc40c"/><path d="M100.37,347.092c0,1.722-.711,3.115-1.587,3.115s-1.59-1.393-1.59-3.115c0-1.707.715-3.1,1.59-3.1S100.37,345.385,100.37,347.092Z" transform="translate(-19.971 -334.461)" fill="#ffc40c"/><path d="M83.921,390.174,79.54,373.231H91.261l-4.8,16.943Z" transform="translate(-29.249 -319.094)" fill="#ec1a6b"/><path d="M81.991,387.662a2.12,2.12,0,1,1,2.119,2.111A2.114,2.114,0,0,1,81.991,387.662Z" transform="translate(-27.96 -312.621)" fill="#ec1a6b"/></g><g transform="translate(313.35 51.644)"><path d="M391.788,398.149a75.809,75.809,0,0,1-10.323,1.574c-8.067.871-19.723,1.786-32.184,2.416-11.931.625-24.559.976-35.4.818-.958-.017-1.895-.037-2.841-.072-10.077-.247-17.838-.683-23.691-1.1-2.288-.172-4.29-.352-6.015-.509-6.686-.664-9.31-1.217-9.31-1.217-1.521-6.825,12.309-91.16,16.675-106.117,4.352-14.984,20.134-36.588,20.134-36.588.134-2.243.365-4.805.634-7.56.683-6.644,1.7-14.421,2.715-21.577,1.712-12.052,3.406-22.33,3.406-22.33,28.611.838,41.575-2.636,41.588-2.653,0,0,1.34,2.805,2.879,6.431l.017.008c2.333,5.477,5.17,12.8,4.609,15.087-.685,2.728-4.259,6.911-6.218,9.055-.774.848-1.286,1.361-1.286,1.361.473,6.261,8.261,59.7,14.328,80.539S391.788,398.149,391.788,398.149Z" transform="translate(-241.507 -71.759)" fill="#3cb149"/><path d="M338.086,222.538c-.685,2.728-4.259,6.911-6.218,9.055-8.149,2.595-9.348.209-9.348.209,11.447-3.226,11.153-20.553,10.958-24.352C335.81,212.928,338.648,220.255,338.086,222.538Z" transform="translate(-214.911 -69.541)" fill="#2c9c38"/><path d="M328.208,225.415s-6.378,7.824-14.326,4.308c0,0-.7,20.706-2.241,24.6s-14.422,28.649-21.623,70.1c-5.292,30.452-7.745,56.551-8.683,68.244-6.686-.664-9.31-1.217-9.31-1.217-1.521-6.825,12.309-91.16,16.675-106.117,4.352-14.984,20.134-36.588,20.134-36.588.134-2.243.365-4.805.634-7.56.683-6.644,1.7-14.421,2.715-21.577A18.945,18.945,0,0,0,328.208,225.415Z" transform="translate(-241.507 -63.153)" fill="#2c9c38"/><path d="M303.719,286.3s-1.333,5.3-3.228,5.864-11.93-9.477-24.449-22.176c-12.492-12.691-24.062-29.566-24.062-29.566,2.839-10.033,27.848-39.984,27.848-39.984a40.211,40.211,0,0,1,11.19,9.487,46.639,46.639,0,0,1,2.9,3.933c3.3,4.993,3.925,8.194,3.925,8.194-6.062,8.157-18.509,16.489-18.509,16.489s8.793,15.4,13.733,24.486a.047.047,0,0,1,.017.034c.211.36.406.711.594,1.054A229.424,229.424,0,0,1,303.719,286.3Z" transform="translate(-251.98 -73.224)" fill="#f1b5ab"/><path d="M358.23,218.933a63.483,63.483,0,0,1-7.521,1.335c-.468.06-.967.118-1.483.2a209.668,209.668,0,0,1-26.64,1.239c-.494,0-1.016-.009-1.53-.009-1.425-.032-2.889-.058-4.415-.108,0,0-1.708,10.355-3.435,22.483-.9,6.335-1.789,13.164-2.458,19.234-.078.746-.153,1.471-.229,2.191-.1-.471-.224-.976-.345-1.487-3.353-14.25-9.688-40.977-9.688-40.977-3.033,4.3-12.07,13.266-12.07,13.266s-1.376-3.233-3.4-6.843a45.856,45.856,0,0,0-3.423-5.283c-3.733-4.868-11.689-8.854-11.689-8.854,1.333-1.632,18.889-25.264,27.349-30.368a116.256,116.256,0,0,1,12.888-6.6c.468-.229.941-.424,1.4-.622a75.455,75.455,0,0,1,12.357-4.38s7.713.6,11.512,1.361a29.348,29.348,0,0,1,4.123,1.129,17.942,17.942,0,0,1,1.692.676,13.509,13.509,0,0,1,6.4,5.431c2.746,4.757,4.719,5.457,5.005,12.129C352.908,200.726,358.217,218.891,358.23,218.933Z" transform="translate(-242.559 -87.463)" fill="#fcca25"/><g transform="translate(67.586 90.265)"><path d="M308.726,220.195a.8.8,0,0,1-.571.735,1.5,1.5,0,0,1-.186.008.752.752,0,0,1-.729-.561l-.044-.191-10.912-43.344c.468-.229.941-.424,1.4-.622l11.023,43.787A.856.856,0,0,1,308.726,220.195Z" transform="translate(-296.284 -176.219)" fill="#90d6e9"/></g><path d="M347.485,184.384c-5.133,5.31-15.2,6.842-23.995,4.215a21.592,21.592,0,0,1-2.422-.847c-.427-.162-.839-.351-1.251-.531-6.369-2.924-11.092-8.491-13.519-11.844-1.182-1.634-1.829-2.737-1.829-2.737a6.959,6.959,0,0,1-4.54-1.762c-5.017-4.335-5.1-15.36-1.132-17.191,4.909-2.274,5.672,3.789,5.672,3.789s2.072-9.425,6.529-15.222a15.261,15.261,0,0,1,1.245-1.455c4.2-4.335,10.762-10.357,13.325-12.657h.017c.664-.633,1.06-.984,1.06-.984,14.6,3.217,19.705,1.137,19.705,1.137s.188.548.5,1.463c.133.429.316.949.513,1.539,1.8,5.321,5.535,16.541,7.518,23.142C357.529,163.361,353.369,178.328,347.485,184.384Z" transform="translate(-228.86 -111.735)" fill="#f1b5ab"/><path d="M307.2,383.007c-.94,23.87,0,93.6,0,93.6h-4.549c-.558-.023-23.859-77.487-24.815-96.083-.955-18.549,10.233-32.953,10.233-32.953l-3.806-14.187c1.8.137,3.791.255,5.959.4,4.892.275,10.761.529,17.732.708.946.035,1.882.055,2.841.072C310.131,341.084,308.006,362.977,307.2,383.007Z" transform="translate(-238.422 -3.362)" fill="#fcca25"/><path d="M385.026,472.211l-5.278,1.092-.208.049s-18.947-31.65-29.566-46.816c-10.612-15.151-21.223-34.1-22.933-48.121s2.467-32.8,2.467-32.8l-6.88-11.162c3.149-.159,6.247-.334,9.243-.509,8.869-.575,16.907-1.26,22.941-1.907,1.077,6.984,4.851,31.635,8.23,52.056C367.016,408.166,385.026,472.211,385.026,472.211Z" transform="translate(-214.854 -4.071)" fill="#fcca25"/><path d="M302.385,259.782c-1.364.76-7.036-3.423-11.217-2.089,0,0,7.577,3.969,6.634,6.242-.781,1.9-7.246-.949-8.926-1.849,1.312,1.123,5.046,5.972,4.2,7.159-.958,1.336-7.023-4.326-7.023-4.326s2.474,5.088.952,6.6-3.228-6.627-3.228-6.627a38.43,38.43,0,0,1,3.228-5.864c2.172-2.927,4.918-7.785,8.146-6.461S303.729,259.03,302.385,259.782Z" transform="translate(-235.269 -45.949)" fill="#f1b5ab"/><path d="M373.029,257.619c-.891,8.337-4.124,12.065-8.885,12.964a18.877,18.877,0,0,1-7.792-.456c-8.9-2.092-12.306-13.827-15.341-25.012s-10.425-34.69-11.746-43.395a60.716,60.716,0,0,1-.761-14.035,6.974,6.974,0,0,1-3.588-1.513.549.549,0,0,1-.241-.394c-.085-.728,1.529-1.558,2.937-2.174-2.214.78-5.561,1.745-6.306.865-1.1-1.283,5.109-6.337,5.473-6.621-.393.154-7.6,3.182-8.512,2.259-.879-.882,6.445-5.475,7.316-6.023-.926.394-9.162,3.85-10.006,2.43-.918-1.521,8.11-7.048,11.035-8.158,2.923-1.088,5.484,1.71,5.484,1.71s4.185-.752,3.988,2.464a5.961,5.961,0,0,1,3.037,6.252,42.826,42.826,0,0,1-2.84,8.9c.365.581,16.86,26.35,23.863,36.382C367.165,234.123,374.362,245.294,373.029,257.619Z" transform="translate(-218.594 -90.218)" fill="#f1b5ab"/><path d="M359.929,425.412l1.966,6.471h25.7S374.9,418.024,359.929,425.412Z" transform="translate(-195.252 43.86)" fill="#f79645"/><path d="M319.935,171.989l-.307,4.577-.708,10.723c-4.171,2.088-12.145-3.214-12.145-5.114,0-.863-.834-5.756-1.747-10.845-1.089-6.131-2.287-12.563-2.287-12.563,2.427,3.353,7.15,8.92,13.519,11.844A25.031,25.031,0,0,0,319.935,171.989Z" transform="translate(-225.304 -95.125)" fill="#f1b5ab"/><g transform="translate(44.918)"><path d="M364.985,128.3c0,.095,0,.206-.008.291-.244,3.728-5.417,6.133-10.477,6.482-.316-.915-.5-1.463-.5-1.463s-5.106,2.081-19.705-1.136c0,0-9.1,8.151-14.4,13.641-3.06,3.155-5.17,8.218-6.415,11.929-.909,2.746-1.359,4.747-1.359,4.747s-.656-5.278-4.737-4.139a5.239,5.239,0,0,0-.935.349c-2.021.924-2.976,4.2-2.795,7.792a15.211,15.211,0,0,0,2.519,7.852,9.228,9.228,0,0,0,1.408,1.547,31.258,31.258,0,0,0-1.893,4.5c-3.609,10.332,7.577,19.064,13.443,24.545,4.474,4.183,8.855,14.221,6.041,21.775v.018a12.214,12.214,0,0,1-4.9,6.07,22.382,22.382,0,0,1-20.282,2.456c5.878-4.544,2.09-14.781-6.247-19.526-8.337-4.729-12.126-8.338-12.309-21.081-.2-12.768,14.965-23.058,14.965-23.058l4.09-7.919a.722.722,0,0,1,.063-.154,1.235,1.235,0,0,1,.09-.162l2.015-3.9c-1.045-4.892-3.609-17.249.973-27.281S321.6,115.608,339.4,117.309C357.229,119,364.985,123.952,364.985,128.3Z" transform="translate(-281.425 -117.049)" fill="#721813"/><path d="M307.14,144.033c-.909,2.746-1.359,4.747-1.359,4.747s-.763-6.064-5.672-3.789c-3.565,1.634-3.852,10.674-.276,15.644-3.791-2.233-8.02-5.928-5.686-10.674a.728.728,0,0,1,.063-.154,1.24,1.24,0,0,1,.09-.162C297.967,142.793,305.239,143.487,307.14,144.033Z" transform="translate(-275.09 -103.039)" fill="#983222"/></g><g transform="translate(96.983 88.375)"><path d="M326.722,219.351c0,.018.017.043,0,.06a.734.734,0,0,1-.575.838.5.5,0,0,1-.156.017.765.765,0,0,1-.74-.6l-.012-.06-9.686-44.627a17.92,17.92,0,0,1,1.692.676Z" transform="translate(-315.554 -174.98)" fill="#90d6e9"/></g><path d="M271.364,233.923s8.793,15.4,13.733,24.486c-7.85-10.93-17.96-22.03-17.96-22.03,5.348-3.943,15.069-20.457,18.811-27.139,3.3,4.993,3.925,8.193,3.925,8.193C283.811,225.59,271.364,233.923,271.364,233.923Z" transform="translate(-244.015 -68.601)" fill="#f5948d"/><path d="M302.385,259.782c-1.364.76-7.036-3.423-11.217-2.089,0,0,7.577,3.969,6.634,6.242-.781,1.9-7.246-.949-8.926-1.849,1.312,1.123,5.046,5.972,4.2,7.159-.958,1.336-7.023-4.326-7.023-4.326s2.474,5.088.952,6.6-3.228-6.627-3.228-6.627a38.43,38.43,0,0,1,3.228-5.864c2.172-2.927,4.918-7.785,8.146-6.461S303.729,259.03,302.385,259.782Z" transform="translate(-235.269 -45.949)" fill="#f5948d"/><path d="M360.987,265.117a18.876,18.876,0,0,1-7.792-.456c-8.9-2.091-12.306-13.827-15.34-25.012s-10.425-34.69-11.746-43.395a60.722,60.722,0,0,1-.761-14.035,6.975,6.975,0,0,1-3.588-1.513.549.549,0,0,1-.241-.394c1.284.342,5.243,1.1,8.258-1.806a51.733,51.733,0,0,0,0,19.952c2.133,10.991,9.716,27.754,17.676,40.217A174.645,174.645,0,0,1,360.987,265.117Z" transform="translate(-215.437 -84.752)" fill="#f5948d"/><path d="M319.935,171.989l-.307,4.577a24.593,24.593,0,0,1-14.6-5.236c-1.089-6.131-2.287-12.563-2.287-12.563,2.427,3.353,7.15,8.92,13.519,11.844A25.031,25.031,0,0,0,319.935,171.989Z" transform="translate(-225.304 -95.125)" fill="#f5948d"/><path d="M321.068,182.552c-.427-.162-.839-.351-1.251-.531-6.369-2.924-11.092-8.491-13.519-11.844-1.182-1.634-1.829-2.737-1.829-2.737a6.959,6.959,0,0,1-4.54-1.762c-5.017-4.336-5.1-15.36-1.132-17.191,4.909-2.275,5.672,3.789,5.672,3.789s2.072-9.425,6.529-15.222c-3.014,7.55-3.64,15.229-1.408,26.478C311.1,171.161,316.6,178.044,321.068,182.552Z" transform="translate(-228.86 -106.535)" fill="#f5948d"/><path d="M337.166,131.3a59.211,59.211,0,0,1-21.781-3.155c.664-.633,1.06-.984,1.06-.984,14.6,3.217,19.705,1.137,19.705,1.137s.188.548.5,1.463C336.786,130.187,336.97,130.707,337.166,131.3Z" transform="translate(-218.66 -111.735)" fill="#f5948d"/><g transform="translate(17.308 163.123)"><path d="M264.086,230.874a.754.754,0,0,1-.757-.677.762.762,0,0,1,.676-.83c5.016-.514,10.879-5.184,10.935-5.226a.769.769,0,0,1,1.068.121.755.755,0,0,1-.113,1.06c-.258.206-6.267,5-11.734,5.553Z" transform="translate(-263.326 -223.979)" fill="#983222"/></g><g transform="translate(104.482 37.906)"><path d="M322.078,160.116c-.392,0-.808-.009-1.24-.027a.375.375,0,0,1-.368-.392.4.4,0,0,1,.392-.369c5.376.206,7.495-.915,8.091-1.35-1.625-3.112-5.219-15.069-5.184-15.719a.384.384,0,0,1,.4-.362.378.378,0,0,1,.358.369c.119.9,3.673,12.965,5.24,15.617a.386.386,0,0,1-.044.436C329.654,158.4,328.092,160.116,322.078,160.116Z" transform="translate(-320.47 -141.896)" fill="#983222"/></g><path d="M306.138,142.3c1.763-2.046,6.349-8.338,15.426-5.4,0,0-.792,1.172-7.693,2.805S306.138,142.3,306.138,142.3Z" transform="translate(-223.519 -107.02)" fill="#721813"/><path d="M322.744,138.107a12.366,12.366,0,0,1,8.818-2.221c4.918.821,5.324,3.532,5.324,3.532S332.713,138.391,322.744,138.107Z" transform="translate(-214.793 -107.222)" fill="#721813"/><path d="M311.2,156.721c.848.128,4.991,3.086,13.214,3.121s12.669-2.113,12.669-2.113-3.878,8.973-12.942,9.6S311.2,156.721,311.2,156.721Z" transform="translate(-220.861 -96.2)" fill="#fff"/><g transform="translate(69.759 45.044)"><path d="M300.972,157.658h-.05a.387.387,0,0,1-.325-.429c.5-4.2-2.8-10.023-2.837-10.085a.379.379,0,1,1,.659-.374c.137.247,3.454,6.1,2.927,10.553A.373.373,0,0,1,300.972,157.658Z" transform="translate(-297.709 -146.576)" fill="#983222"/></g><g transform="translate(69.684 48.592)"><path d="M299.571,153.185a1.794,1.794,0,0,1-1.8-.923c-.584-1.352,1.339-3.081,1.562-3.269a.376.376,0,0,1,.534.044.37.37,0,0,1-.037.529c-.452.394-1.672,1.686-1.367,2.4.29.674,1.73.436,2.213.3a.379.379,0,0,1,.461.273.374.374,0,0,1-.259.462A5.068,5.068,0,0,1,299.571,153.185Z" transform="translate(-297.659 -148.901)" fill="#983222"/></g><path d="M314.773,144.631c0,2.128-.763,3.858-1.693,3.858s-1.692-1.73-1.692-3.858.757-3.866,1.692-3.866S314.773,142.492,314.773,144.631Z" transform="translate(-220.761 -104.585)" fill="#1e1724"/><path d="M328.972,144.384c0,2.557-.757,4.628-1.7,4.628s-1.69-2.072-1.69-4.628.755-4.616,1.69-4.616S328.972,141.837,328.972,144.384Z" transform="translate(-213.3 -105.109)" fill="#1e1724"/><path d="M308,231.94c-.9,6.335-1.789,13.164-2.458,19.234l-.574.7c-3.353-14.25-9.689-40.977-9.689-40.977-3.033,4.3-12.07,13.266-12.07,13.266s-1.376-3.233-3.4-6.843c4.84-3.89,15.664-13.322,17.424-20.893C297.238,196.429,298.056,220.447,308,231.94Z" transform="translate(-237.353 -75.333)" fill="#d4a91e"/><path d="M313.115,188.1c4.474,4.183,8.856,14.221,6.041,21.775-.275-5.748-2.156-15.377-11.222-19.7-13.385-6.363-19.209-26.016-11.871-37.775.561-.917,1.1-1.823,1.576-2.746a15.209,15.209,0,0,0,2.519,7.852,9.232,9.232,0,0,0,1.408,1.547,31.273,31.273,0,0,0-1.893,4.5C296.063,173.887,307.25,182.619,313.115,188.1Z" transform="translate(-230.497 -99.913)" fill="#661513"/><path d="M356.037,125.52c-.244,3.728-5.417,6.133-10.477,6.482-.316-.915-.5-1.463-.5-1.463s-5.106,2.081-19.7-1.137c0,0-9.1,8.151-14.4,13.641-3.06,3.155-5.17,8.218-6.415,11.929-.909,2.746-1.359,4.747-1.359,4.747s-.656-5.278-4.737-4.139c3.35-8.323,5.856-16.346,12.886-21.938C321.2,125.81,335.612,118.96,356.037,125.52Z" transform="translate(-227.566 -113.979)" fill="#661513"/><path d="M353.828,417.165c10.581,20.784,20.755,44.491,25.92,55.481l-.208.049s-18.947-31.65-29.566-46.816c-10.612-15.151-21.223-34.1-22.933-48.121s2.467-32.8,2.467-32.8l-6.88-11.162c3.149-.159,6.247-.334,9.243-.509l2.746,12.254C330.452,360.7,339.544,389.12,353.828,417.165Z" transform="translate(-214.854 -3.414)" fill="#eebe1f"/><path d="M362.364,428.753a.522.522,0,0,1-.215-.162Z" transform="translate(-194.085 46.67)" fill="#7a1715"/><path d="M304.217,476.607h-1.564c-.558-.023-23.859-77.487-24.815-96.083-.955-18.549,10.233-32.953,10.233-32.953l-3.806-14.187c1.8.137,3.791.255,5.959.4.031,7.028-.063,18.91-.063,18.91s-7.019,8.711-3.228,39.407C290.285,419.189,301.6,465.99,304.217,476.607Z" transform="translate(-238.422 -3.362)" fill="#eebe1f"/><g transform="translate(201.952 354.895)"><path d="M393.113,355.411c-1.487,7.4-7.473,9.878-8.259,9.151-.946-.882-.568-2.149,1.51-5.545,1.387-2.258,1.762-5.619,1.863-7.611.049-1.036.037-1.718.037-1.718l5.124.616A18.3,18.3,0,0,1,393.113,355.411Z" transform="translate(-384.363 -349.689)" fill="#1da8b7"/><path d="M391.782,355.411c-1.411-1.251-3.672-3.039-4.886-4,.049-1.036.037-1.718.037-1.718l5.124.616A18.309,18.309,0,0,1,391.782,355.411Z" transform="translate(-383.032 -349.689)" fill="#055257"/></g><path d="M391.806,342.631h-4.8l-1.327,10.613,4.925.694Z" transform="translate(-181.719 1.497)" fill="#0d64a5"/><g transform="translate(202.892 346.648)"><path d="M389.906,344.857l-.514,5-2.034-.228-2.379-.276.5-5.065,4.088.532Z" transform="translate(-384.98 -344.283)" fill="#d64e27"/><path d="M389.087,344.674l-.514,5-2.034-.228,2.214-4.809Z" transform="translate(-384.16 -344.1)" fill="#c23827"/></g><path d="M293.25,421.835c-2.018,7.173-2.761,10.628-2.761,10.628h15.16l-5.118-10.628Z" transform="translate(-231.743 43.119)" fill="#f79645"/></g><g transform="translate(500.602 394.772)"><path d="M467.835,382.545l-1.542,9.187-10.432,62.445a158.369,158.369,0,0,1-26.463,3.7c-25.671,1.4-43.736-3.7-43.736-3.7L377.4,385.521l-.363-2.976Z" transform="translate(-373.514 -320.656)" fill="#ffc72a"/><path d="M467.835,382.545l-1.542,9.187a154.589,154.589,0,0,1-24.112,2.48c-28.822.806-54.409-5.652-64.782-8.691l-.363-2.976Z" transform="translate(-373.514 -320.656)" fill="#f6b119"/><path d="M449.8,382.545l-1.542,9.187-10.432,62.445a158.371,158.371,0,0,1-26.463,3.7c2.889-10.938,9.629-40.333,12.782-63.661.557-4.119,1-8.056,1.306-11.667Z" transform="translate(-355.476 -320.656)" fill="#f6b119"/><g transform="translate(29.996 25.481)"><path d="M409.486,390.773h-8.811s-1.6-8.19-3.187-16.314c-1.471-7.495-2.918-14.918-3.1-15.78,0,0,2.348,1.988,7.55,1.434l5.374,21.847Z" transform="translate(-394.39 -358.679)" fill="#ab7eb7"/><path d="M408.419,385.337h-8.811s-1.6-8.19-3.187-16.314a63.709,63.709,0,0,0,9.826,7.5Z" transform="translate(-393.323 -353.243)" fill="#f072ab"/></g><g transform="translate(39.343 0.02)"><path d="M413.638,352.359,408.9,353.43l-5.509,1.258-2.871-9.342a13.162,13.162,0,0,0,8.38-1.768,9.462,9.462,0,0,0,2.041-1.589Z" transform="translate(-400.517 -341.989)" fill="#ab7eb7"/><path d="M410.751,352.359l-4.741,1.071v-9.852a9.462,9.462,0,0,0,2.041-1.589Z" transform="translate(-397.63 -341.989)" fill="#8362a9"/></g><path d="M397.232,387.184h-19.87l2.795-21.676h10.437Z" transform="translate(-373.343 -329.609)" fill="#35469c"/><path d="M393.892,387.184h-9l-1.174-21.676h3.538Z" transform="translate(-370.003 -329.609)" fill="#2a2f7f"/><path d="M401.94,365.311l12.575-10.418H431.76l-14.913-6.107-10.239,2.329L394.39,363.877S396.25,366.391,401.94,365.311Z" transform="translate(-364.394 -338.396)" fill="#f39cc2"/><path d="M400.517,345.36s2.152-3.689,10.421-3.364C410.938,342,408.424,346.5,400.517,345.36Z" transform="translate(-361.174 -341.976)" fill="#f39cc2"/><g transform="translate(0 12.719)"><path d="M404.722,359.486l-8.015,5.229-21.98-3.684.089-1.247.693-9.47h22.144l4.944,6.412Z" transform="translate(-374.727 -350.314)" fill="#4874b9"/><path d="M404.723,357.277l-8.015,5.23-21.981-3.684.09-1.246c4.281.079,19.553.747,19.553.747l8.229-3.806Z" transform="translate(-374.727 -348.105)" fill="#0d64a5"/></g><g transform="translate(4.327 23.943)"><path d="M391.375,360.16v3.607H377.564v-6.1Z" transform="translate(-377.564 -357.671)" fill="#1e7ea0"/><path d="M391.375,360.16v2.619l-13.812-3.96v-1.149Z" transform="translate(-377.564 -357.671)" fill="#0c6f88"/></g><g transform="translate(6.814 30.039)"><path d="M389.631,367.526H379.193v-5.859h8.813Z" transform="translate(-379.193 -361.667)" fill="#f7981d"/><path d="M388.51,367.526h-3.695l-3.489-5.859h5.56Z" transform="translate(-378.073 -361.667)" fill="#dd8426"/></g><g transform="translate(37.546 16.497)"><path d="M441.566,393.867h-34.68l-2.285-9.251-5.262-21.408,12.575-10.418h17.245l8.67,28.723Z" transform="translate(-399.339 -352.79)" fill="#a16dad"/><path d="M439.753,383.973H405.073l-2.285-9.252a118.128,118.128,0,0,0,15.853,1.59c4.31,0,12.293-2.74,17.376-4.693Z" transform="translate(-397.526 -342.896)" fill="#8362a9"/></g><g transform="translate(1.138 57.575)"><path d="M470.813,382.589a2.877,2.877,0,0,1-2.877,2.876H378.353a2.872,2.872,0,0,1-2.046-4.9,2.924,2.924,0,0,1,2.046-.853h89.583A2.886,2.886,0,0,1,470.813,382.589Z" transform="translate(-375.473 -379.717)" fill="#ffc40c"/><path d="M450.092,382.589a2.877,2.877,0,0,1-2.877,2.876H414.9l2.906-5.748h29.4A2.886,2.886,0,0,1,450.092,382.589Z" transform="translate(-354.752 -379.717)" fill="#f7981d"/></g><path d="M421.543,379.717c-.116,1.341-.288,3.326-.5,5.748-.805,8.962-2.313,23.963-4.214,34.974-1.411,8.108-3.031,14.035-4.728,13.809-5.22-.7-3.233-15.479-3.594-16.024s-4.5,16.713-8.982,16c-4.3-.7-.365-16.558-.029-17.887-.575,1.249-7.147,15.656-10.755,14.111-3.765-1.617,2.708-19.941,2.824-20.476s-9.113,13.113-11.993,11.733.535-5.9,3.254-14.974c1.651-5.525,5.818-14.72,8.965-21.264,1.12-2.349,2.113-4.371,2.807-5.748Z" transform="translate(-372.756 -322.142)" fill="#b72d4c"/><path d="M459.3,414.959c-1.022-1.776-6.7-1.837-11.849-2.7-.519-.088-1.021-.183-1.518-.291a21.757,21.757,0,0,1-2.244-.581c-.031-.015-.06-.015-.089-.032-3.664-1.191-8.151-3.425-11.774-4.325a11.387,11.387,0,0,0-1.477-.314,9.276,9.276,0,0,0-1.368-.114,3.46,3.46,0,0,0-3.048,1.329l-2.783-8.576-.464-1.469-2.358-7.27-.47-1.437L417.6,382.2a15.028,15.028,0,0,1,5.949-.639,5.154,5.154,0,0,1,2.14.772,2.345,2.345,0,0,1,.534.406c.278.243,1.208-3.222,4.442-5.6a8.973,8.973,0,0,1,1.21-.761,11.6,11.6,0,0,1,5.692-1.416c.328,0,.685.009,1.045.029a8.92,8.92,0,0,1,.918.089,14.36,14.36,0,0,1,9.634,5.721,12.39,12.39,0,0,1,.859,1.137,52.322,52.322,0,0,1,5.911,11.986c.172.413.314.818.479,1.214a.73.73,0,0,0,.04.147A49.491,49.491,0,0,1,459.1,409.4v.017c.1,1.693.128,3.178.15,4.267C459.269,414.2,459.283,414.628,459.3,414.959Z" transform="translate(-352.198 -324.643)" fill="#81d2eb"/><path d="M445.089,402.021a1.256,1.256,0,0,0-.16-.841,2.594,2.594,0,0,0,.1.775C445.106,401.99,445.129,402.007,445.089,402.021Z" transform="translate(-337.835 -310.863)" fill="#675352"/><path d="M445,401.688c.017.035.03.079.056.066S445.07,401.723,445,401.688Z" transform="translate(-337.799 -310.596)" fill="#675352"/><path d="M456.566,404.835a2.589,2.589,0,0,1-.1-.775c-1.268-2.236-9.9-1.757-15.6-3.582a.15.15,0,0,1-.059-.015c-.009,0-.021-.009-.029-.009-6.326-2.052-15.077-7.161-17.667-3.425-1.195,1.728,6.767,3.763,12.6,5.725s20.387,5.384,20.921,2.146C456.6,404.915,456.582,404.87,456.566,404.835Z" transform="translate(-349.368 -313.744)" fill="#1da8b7"/><path d="M422.749,424.517c-6.419,1-3.939-19.929-3.492-23.4-.516,3.114-3.431,19.777-7.835,19.447a1.51,1.51,0,0,1-.487-.124c-3.753-1.753.487-20.741.963-22.858-.619,1.986-5.573,17.719-9.284,16.874-3.953-.883,0-21.009,0-21.009s-7.716,17.06-11.859,15.626c-2.8-.982.5-14.662,3.252-23.606.714-2.349,1.4-4.371,1.921-5.748H428.2c.037,1.35.081,3.33.095,5.748C428.4,398.523,427.924,423.725,422.749,424.517Z" transform="translate(-366.865 -322.142)" fill="#ed3455"/><g transform="translate(71.35 56.919)"><path d="M429.777,404.754a11.376,11.376,0,0,0-1.477-.314c-.406-2.659-.763-5.126-1.137-7.42h-.015c-.075-.485-.142-.964-.226-1.419-.494-2.822-1.022-5.391-1.67-7.721h-.017c-.116-.476-.259-.931-.4-1.393a27.844,27.844,0,0,0-3.338-7.2,5.151,5.151,0,0,1,2.14.772,30.536,30.536,0,0,1,2.636,6.229c.145.461.268.911.416,1.374.662,2.39,1.188,5,1.683,7.867.085.471.152.941.241,1.433.374,2.336.734,4.819,1.121,7.493C429.748,404.552,429.763,404.649,429.777,404.754Z" transform="translate(-421.498 -379.287)" fill="#aadeee"/></g><g transform="translate(78.466 51.732)"><path d="M442.95,411.77c-.519-.088-1.021-.183-1.518-.291a85.571,85.571,0,0,0-4.372-13.839c-.2-.471-.389-.934-.571-1.378-1.324-3.13-2.74-6.09-4.126-8.755-.221-.442-.445-.871-.662-1.292-2.172-4.094-4.186-7.428-5.537-9.566a8.975,8.975,0,0,1,1.21-.761c1.393,2.2,3.477,5.647,5.7,9.873.22.406.445.845.677,1.291,1.416,2.748,2.851,5.78,4.2,9,.188.461.375.9.563,1.361A83.358,83.358,0,0,1,442.95,411.77Z" transform="translate(-426.163 -375.887)" fill="#aadeee"/></g><g transform="translate(85.368 50.316)"><path d="M452.368,413.681a125.916,125.916,0,0,0-8.023-17.252c-.235-.445-.481-.872-.726-1.3-2.026-3.618-4.108-7.072-6.062-10.14-.259-.409-.519-.816-.776-1.205-2.386-3.674-4.526-6.755-6.093-8.824.328,0,.685.009,1.045.029a8.918,8.918,0,0,1,.918.089c1.6,2.113,3.483,4.871,5.507,8.033.259.4.509.805.763,1.225,2.015,3.2,4.126,6.77,6.168,10.476.229.43.471.877.708,1.323,2.383,4.4,4.609,8.943,6.422,13.264v.017C452.317,411.107,452.346,412.592,452.368,413.681Z" transform="translate(-430.687 -374.959)" fill="#aadeee"/></g><g transform="translate(67.661 56.154)"><path d="M449.243,379.922c-1.178.748-2.595,1.565-4.223,2.4-.445.207-.9.445-1.364.653a59.409,59.409,0,0,1-6.184,2.551c-.458.153-.914.3-1.387.456a56.99,56.99,0,0,1-8.123,1.942c-.474.075-.955.15-1.439.218h-.017a54.462,54.462,0,0,1-6.956.458l-.47-1.437a50.191,50.191,0,0,0,7.027-.413c.49-.064.958-.13,1.439-.2a51.194,51.194,0,0,0,7.878-1.86c.473-.148.931-.284,1.371-.455a50.9,50.9,0,0,0,6.085-2.465c.471-.224.932-.453,1.378-.673,1.6-.8,2.975-1.6,4.126-2.313A12.406,12.406,0,0,1,449.243,379.922Z" transform="translate(-419.08 -378.786)" fill="#aadeee"/></g><g transform="translate(70.489 69.277)"><path d="M454.7,388.749c-1.106.259-2.392.555-3.777.853-.462.1-.952.2-1.451.3-2.465.508-5.239,1.025-8.212,1.469-.474.09-.963.157-1.451.229-3.466.5-7.144.891-10.9,1.109-.476.02-.964.05-1.451.058h-.015c-1.281.058-2.561.082-3.852.082-.734,0-1.468-.008-2.2-.024l-.464-1.469c2.067.09,4.183.082,6.285-.008.488-.015.956-.049,1.451-.072,3.621-.185,7.2-.575,10.567-1.054.483-.058.988-.131,1.458-.212,2.919-.438,5.637-.926,8.049-1.41.508-.114.992-.221,1.469-.317,1.463-.317,2.8-.616,3.966-.891.172.413.314.818.479,1.214A.732.732,0,0,0,454.7,388.749Z" transform="translate(-420.934 -387.388)" fill="#aadeee"/></g></g></g></svg>