<svg xmlns="http://www.w3.org/2000/svg" width="172.908" height="76.446" viewBox="0 0 172.908 76.446">
  <g id="Group_3908" data-name="Group 3908" transform="translate(-98.766 -108.178)">
    <g id="Group_3893" data-name="Group 3893" transform="translate(98.765 108.178)">
      <path id="Path_9694" data-name="Path 9694" d="M317.894,538.859l.059.06c2.11,2.127,4.291,4.326,6.482,6.428a24.33,24.33,0,0,0,3.756,2.9,19.51,19.51,0,0,0,6.737,2.675l-8.634-8.63,2.2-1.223a10.31,10.31,0,0,0-4.649-19.382q-5.764-.011-11.529,0h-3.843a5.014,5.014,0,0,0,4.809,3.476q2.038,0,4.077,0,3.065,0,6.129,0a6.941,6.941,0,0,1,5.607,2.8,6.729,6.729,0,0,1,1.043,5.986,7.006,7.006,0,0,1-6.7,4.912q-2.773.006-5.548,0" transform="translate(-215.705 -519.323)" fill="#46a83a"/>
      <path id="Path_9695" data-name="Path 9695" d="M303.557,518.676s3.157,30.7,33.767,33.587c-9.025,0-35.173-1.51-33.767-33.587" transform="translate(-213.407 -517.937)" fill="#46a83a"/>
      <path id="Path_9696" data-name="Path 9696" d="M274.4,517.3s-3.157,30.7-33.767,33.587c9.025,0,35.173-1.51,33.767-33.587" transform="translate(-184.36 -517.303)" fill="#46a83a"/>
      <path id="Path_9697" data-name="Path 9697" d="M157.945,624.983a14.164,14.164,0,0,1-2.89-1.294,18.6,18.6,0,0,1-2.484-1.752q-1.138-.955-2.106-1.884t-1.779-1.713a9.755,9.755,0,0,0-1.464-1.2,3.809,3.809,0,0,0-1.478-.628,8.551,8.551,0,0,0-1.059-.079h-5.414v4.237a2.383,2.383,0,0,0,.366,1.373,1.143,1.143,0,0,0,.994.536h.236v.471h-4.838v-.471h.261a1.121,1.121,0,0,0,.968-.536,2.383,2.383,0,0,0,.366-1.373V604.505a2.321,2.321,0,0,0-.366-1.36,1.129,1.129,0,0,0-.968-.523h-.261v-.5h9.624a7.13,7.13,0,0,1,2.772.523,6.173,6.173,0,0,1,2.145,1.464,6.5,6.5,0,0,1,1.373,2.275,8.54,8.54,0,0,1,.484,2.929,7.206,7.206,0,0,1-.405,2.458,6.442,6.442,0,0,1-1.164,2.014,6.868,6.868,0,0,1-1.831,1.5,8.381,8.381,0,0,1-2.38.9,7.3,7.3,0,0,1,1.373.471,11.974,11.974,0,0,1,1.294.68A16.973,16.973,0,0,1,151.3,618.8q.942.8,1.831,1.609t1.8,1.6a13.555,13.555,0,0,0,1.936,1.386,10.3,10.3,0,0,0,2.21.968,8.921,8.921,0,0,0,2.628.366,11.73,11.73,0,0,0,4.211-.8,22.537,22.537,0,0,0,4.132-2.105l.236.366q-.915.6-1.961,1.19a19.68,19.68,0,0,1-2.2,1.059,15.674,15.674,0,0,1-2.38.758,11.132,11.132,0,0,1-5.806-.209Zm-10.971-9.428a5.614,5.614,0,0,0,1.988-1.373,6.294,6.294,0,0,0,1.281-2.132,7.851,7.851,0,0,0,.458-2.733,9.737,9.737,0,0,0-.366-2.759,6.661,6.661,0,0,0-1.033-2.131,4.835,4.835,0,0,0-1.6-1.386,4.279,4.279,0,0,0-2.053-.5h-6.381v13.495H144.4A6.652,6.652,0,0,0,146.974,615.555Zm8.8,3.125a1.222,1.222,0,0,0,.941-.366,1.743,1.743,0,0,0,.34-1.2V604.479a1.889,1.889,0,0,0-.3-1.125.938.938,0,0,0-.8-.418h-.183v-.392h12.632q0,.6.039,1.308t.065,1.308h-.235c-.07,0-.1-.009-.1-.026l-.157-.314a3.393,3.393,0,0,0-1.36-1.426,3.917,3.917,0,0,0-2.014-.536h-6.094v6.512h5.388a3.989,3.989,0,0,0,1.621-.3,1.483,1.483,0,0,0,.863-.8l.1-.183h.34v3.06h-.34l-.1-.235a1.694,1.694,0,0,0-.889-.889,3.522,3.522,0,0,0-1.6-.34h-5.388v9.049h6.277a4.431,4.431,0,0,0,2.092-.523,4.312,4.312,0,0,0,1.6-1.412l.236-.34c0-.017.035-.026.1-.026h.236q-.131.576-.249,1.243t-.249,1.242l-.052.156H155.775v-.392Zm16.139,4.341v-.5a1.844,1.844,0,0,0,1.229-.418,3.566,3.566,0,0,0,.889-1.308l7.689-18.726h.471l8,18.595a4.212,4.212,0,0,0,.9,1.373,1.738,1.738,0,0,0,1.242.484v.5H187.4v-.5h.314a1.127,1.127,0,0,0,.811-.275.98.98,0,0,0,.288-.745,1.731,1.731,0,0,0-.039-.366,3.155,3.155,0,0,0-.131-.432q-.091-.248-.261-.615t-.405-.941a9.9,9.9,0,0,1-2.864-.457q-1.347-.432-2.589-.916t-2.406-.889a7,7,0,0,0-2.314-.405,4.94,4.94,0,0,0-1.622.261q-.575,1.386-.9,2.184t-.5,1.229a3.922,3.922,0,0,0-.209.641,2.389,2.389,0,0,0-.039.444,1.3,1.3,0,0,0,.327.942,1.229,1.229,0,0,0,.929.34h.314v.5Zm4.472-6.774a5.224,5.224,0,0,1,1.413-.183,7.291,7.291,0,0,1,2.341.392q1.164.392,2.379.876t2.524.9a10.2,10.2,0,0,0,2.746.471l-6.355-14.75Zm30.9-13.4a9.344,9.344,0,0,1,5.545,5.413,11.388,11.388,0,0,1,.771,4.276,13.107,13.107,0,0,1-.667,4.289,9.791,9.791,0,0,1-1.87,3.308,8.277,8.277,0,0,1-2.916,2.131,9.234,9.234,0,0,1-3.779.759h-9.86v-.5a1.5,1.5,0,0,0,1.164-.445,2.1,2.1,0,0,0,.406-1.438V604.479a2.359,2.359,0,0,0-.366-1.4,1.136,1.136,0,0,0-.967-.51h-.236V602.1h8.369A12.392,12.392,0,0,1,207.287,602.844Zm.222,19.039a7.022,7.022,0,0,0,2.419-2.039,9.748,9.748,0,0,0,1.556-3.178,14.554,14.554,0,0,0,.549-4.132,12.285,12.285,0,0,0-.654-4.106,9.174,9.174,0,0,0-1.857-3.177,8.215,8.215,0,0,0-2.89-2.04,9.468,9.468,0,0,0-3.753-.719H197.65V622.6h6.721A6.807,6.807,0,0,0,207.509,621.884ZM232.748,602.1v.5q-1.333,0-2.536,1.883c-.139.209-.253.388-.34.536l-.34.576q-.209.353-.562.954t-.981,1.687q-.628,1.085-1.621,2.759t-2.459,4.158v5.492a2.325,2.325,0,0,0,.366,1.36,1.13,1.13,0,0,0,.968.523h.236v.5h-4.708v-.5h.236a1.128,1.128,0,0,0,.967-.523,2.321,2.321,0,0,0,.366-1.36v-4.891l-6.355-11.271a6.982,6.982,0,0,0-1.151-1.4,1.725,1.725,0,0,0-1.151-.484v-.5h4.656v.5h-.261q-.628,0-.628.576a2.344,2.344,0,0,0,.419,1.177l5.884,10.2,5.728-9.7a3.286,3.286,0,0,0,.549-1.516q0-.733-.785-.733h-.209q-.1,0-.1-.261V602.1Zm6.3,20.556v.366h-4.315v-.5a1.577,1.577,0,0,0,1.124-.393,1.935,1.935,0,0,0,.5-1.281l.6-16.371h-.026a.151.151,0,0,0,.026-.1,2.268,2.268,0,0,0-.327-1.308,1.04,1.04,0,0,0-.9-.471h-.261v-.5h2.824l8.081,19.039,7.716-19.039h2.955v.5a1.4,1.4,0,0,0-1.033.354,1.811,1.811,0,0,0-.406,1.19l.732,16.5a2.289,2.289,0,0,0,.458,1.438,1.5,1.5,0,0,0,1.164.445v.5H253.28v-.5h.262a1.007,1.007,0,0,0,.889-.471,2.341,2.341,0,0,0,.314-1.307v-.1q-.131-4.341-.3-8.644t-.327-8.669l-8.081,19.85h-.392q-2.04-4.786-4.093-9.506t-4.093-9.507l-.6,16.372a2.289,2.289,0,0,0,.536,1.451,1.66,1.66,0,0,0,1.295.536h.366Zm20.663.366v-.5a1.844,1.844,0,0,0,1.229-.418,3.566,3.566,0,0,0,.889-1.308l7.689-18.726h.471l8,18.595a4.211,4.211,0,0,0,.9,1.373,1.738,1.738,0,0,0,1.242.484v.5H275.2v-.5h.314a1.129,1.129,0,0,0,.811-.275.982.982,0,0,0,.287-.745,1.73,1.73,0,0,0-.039-.366,3.153,3.153,0,0,0-.131-.432q-.091-.248-.261-.615t-.405-.941a9.9,9.9,0,0,1-2.864-.457q-1.347-.432-2.589-.916t-2.406-.889a7,7,0,0,0-2.314-.405,4.94,4.94,0,0,0-1.622.261q-.575,1.386-.9,2.184t-.5,1.229a3.929,3.929,0,0,0-.209.641,2.39,2.39,0,0,0-.039.444,1.3,1.3,0,0,0,.327.942,1.23,1.23,0,0,0,.929.34h.314v.5Zm4.472-6.774a5.224,5.224,0,0,1,1.413-.183,7.291,7.291,0,0,1,2.341.392q1.164.392,2.379.876t2.524.9a10.2,10.2,0,0,0,2.746.471l-6.355-14.75Zm18.152,6.774v-.5a1.5,1.5,0,0,0,1.164-.445,2.1,2.1,0,0,0,.406-1.438V604.479a2.373,2.373,0,0,0-.353-1.373,1.1,1.1,0,0,0-.954-.51h-.261v-.5h4.707v.5a1.453,1.453,0,0,0-1.151.445,2.15,2.15,0,0,0-.392,1.438v16.162a2.376,2.376,0,0,0,.353,1.373,1.1,1.1,0,0,0,.955.51h.235v.5Zm20.282-20.177a9.344,9.344,0,0,1,5.544,5.413,11.388,11.388,0,0,1,.771,4.276,13.107,13.107,0,0,1-.667,4.289,9.8,9.8,0,0,1-1.87,3.308,8.274,8.274,0,0,1-2.916,2.131,9.229,9.229,0,0,1-3.779.759h-9.86v-.5a1.5,1.5,0,0,0,1.164-.445,2.1,2.1,0,0,0,.406-1.438V604.479a2.358,2.358,0,0,0-.366-1.4,1.137,1.137,0,0,0-.968-.51h-.235V602.1h8.369A12.392,12.392,0,0,1,302.622,602.844Zm.222,19.039a7.032,7.032,0,0,0,2.419-2.039,9.748,9.748,0,0,0,1.556-3.178,14.553,14.553,0,0,0,.549-4.132,12.3,12.3,0,0,0-.654-4.106,9.183,9.183,0,0,0-1.857-3.177,8.215,8.215,0,0,0-2.89-2.04,9.468,9.468,0,0,0-3.753-.719h-5.231V622.6h6.721A6.807,6.807,0,0,0,302.844,621.884Z" transform="translate(-136.029 -556.47)" fill="#46a83a"/>
      <path id="Path_9698" data-name="Path 9698" d="M300.23,564.3a1.424,1.424,0,1,1-1.423-1.424,1.423,1.423,0,0,1,1.423,1.424" transform="translate(-210.58 -538.361)" fill="#46a83a"/>
      <path id="Path_9699" data-name="Path 9699" d="M306.535,564.3a1.424,1.424,0,1,1-1.423-1.424,1.423,1.423,0,0,1,1.423,1.424" transform="translate(-213.493 -538.361)" fill="#46a83a"/>
      <path id="Path_9700" data-name="Path 9700" d="M300.23,570.4a1.424,1.424,0,1,1-1.423-1.424,1.423,1.423,0,0,1,1.423,1.424" transform="translate(-210.58 -541.179)" fill="#46a83a"/>
      <path id="Path_9701" data-name="Path 9701" d="M306.535,570.4a1.424,1.424,0,1,1-1.423-1.424,1.423,1.423,0,0,1,1.423,1.424" transform="translate(-213.493 -541.179)" fill="#46a83a"/>
      <text id="Maid_Access_Made_Easy" data-name="Maid Access, Made Easy" transform="translate(75.916 74.445)" fill="#4d4e4e" font-size="8" font-family="SegoeUI, Segoe UI"><tspan x="0" y="0">Maid </tspan><tspan y="0" letter-spacing="-0.025em">A</tspan><tspan y="0" letter-spacing="-0.014em">cc</tspan><tspan y="0">e</tspan><tspan y="0" letter-spacing="-0.009em">s</tspan><tspan y="0">s, Made Ea</tspan><tspan y="0" letter-spacing="-0.015em">s</tspan><tspan y="0">y</tspan></text>
    </g>
    <g id="Group_3894" data-name="Group 3894" transform="translate(98.765 108.178)">
      <path id="Path_9694-2" data-name="Path 9694" d="M317.894,538.859l.059.06c2.11,2.127,4.291,4.326,6.482,6.428a24.33,24.33,0,0,0,3.756,2.9,19.51,19.51,0,0,0,6.737,2.675l-8.634-8.63,2.2-1.223a10.31,10.31,0,0,0-4.649-19.382q-5.764-.011-11.529,0h-3.843a5.014,5.014,0,0,0,4.809,3.476q2.038,0,4.077,0,3.065,0,6.129,0a6.941,6.941,0,0,1,5.607,2.8,6.729,6.729,0,0,1,1.043,5.986,7.006,7.006,0,0,1-6.7,4.912q-2.773.006-5.548,0" transform="translate(-215.705 -519.323)" fill="#46a83a"/>
      <path id="Path_9695-2" data-name="Path 9695" d="M303.557,518.676s3.157,30.7,33.767,33.587c-9.025,0-35.173-1.51-33.767-33.587" transform="translate(-213.407 -517.937)" fill="#46a83a"/>
      <path id="Path_9696-2" data-name="Path 9696" d="M274.4,517.3s-3.157,30.7-33.767,33.587c9.025,0,35.173-1.51,33.767-33.587" transform="translate(-184.36 -517.303)" fill="#46a83a"/>
      <path id="Path_9697-2" data-name="Path 9697" d="M157.945,624.983a14.164,14.164,0,0,1-2.89-1.294,18.6,18.6,0,0,1-2.484-1.752q-1.138-.955-2.106-1.884t-1.779-1.713a9.755,9.755,0,0,0-1.464-1.2,3.809,3.809,0,0,0-1.478-.628,8.551,8.551,0,0,0-1.059-.079h-5.414v4.237a2.383,2.383,0,0,0,.366,1.373,1.143,1.143,0,0,0,.994.536h.236v.471h-4.838v-.471h.261a1.121,1.121,0,0,0,.968-.536,2.383,2.383,0,0,0,.366-1.373V604.505a2.321,2.321,0,0,0-.366-1.36,1.129,1.129,0,0,0-.968-.523h-.261v-.5h9.624a7.13,7.13,0,0,1,2.772.523,6.173,6.173,0,0,1,2.145,1.464,6.5,6.5,0,0,1,1.373,2.275,8.54,8.54,0,0,1,.484,2.929,7.206,7.206,0,0,1-.405,2.458,6.442,6.442,0,0,1-1.164,2.014,6.868,6.868,0,0,1-1.831,1.5,8.381,8.381,0,0,1-2.38.9,7.3,7.3,0,0,1,1.373.471,11.974,11.974,0,0,1,1.294.68A16.973,16.973,0,0,1,151.3,618.8q.942.8,1.831,1.609t1.8,1.6a13.555,13.555,0,0,0,1.936,1.386,10.3,10.3,0,0,0,2.21.968,8.921,8.921,0,0,0,2.628.366,11.73,11.73,0,0,0,4.211-.8,22.537,22.537,0,0,0,4.132-2.105l.236.366q-.915.6-1.961,1.19a19.68,19.68,0,0,1-2.2,1.059,15.674,15.674,0,0,1-2.38.758,11.132,11.132,0,0,1-5.806-.209Zm-10.971-9.428a5.614,5.614,0,0,0,1.988-1.373,6.294,6.294,0,0,0,1.281-2.132,7.851,7.851,0,0,0,.458-2.733,9.737,9.737,0,0,0-.366-2.759,6.661,6.661,0,0,0-1.033-2.131,4.835,4.835,0,0,0-1.6-1.386,4.279,4.279,0,0,0-2.053-.5h-6.381v13.495H144.4A6.652,6.652,0,0,0,146.974,615.555Zm8.8,3.125a1.222,1.222,0,0,0,.941-.366,1.743,1.743,0,0,0,.34-1.2V604.479a1.889,1.889,0,0,0-.3-1.125.938.938,0,0,0-.8-.418h-.183v-.392h12.632q0,.6.039,1.308t.065,1.308h-.235c-.07,0-.1-.009-.1-.026l-.157-.314a3.393,3.393,0,0,0-1.36-1.426,3.917,3.917,0,0,0-2.014-.536h-6.094v6.512h5.388a3.989,3.989,0,0,0,1.621-.3,1.483,1.483,0,0,0,.863-.8l.1-.183h.34v3.06h-.34l-.1-.235a1.694,1.694,0,0,0-.889-.889,3.522,3.522,0,0,0-1.6-.34h-5.388v9.049h6.277a4.431,4.431,0,0,0,2.092-.523,4.312,4.312,0,0,0,1.6-1.412l.236-.34c0-.017.035-.026.1-.026h.236q-.131.576-.249,1.243t-.249,1.242l-.052.156H155.775v-.392Zm16.139,4.341v-.5a1.844,1.844,0,0,0,1.229-.418,3.566,3.566,0,0,0,.889-1.308l7.689-18.726h.471l8,18.595a4.212,4.212,0,0,0,.9,1.373,1.738,1.738,0,0,0,1.242.484v.5H187.4v-.5h.314a1.127,1.127,0,0,0,.811-.275.98.98,0,0,0,.288-.745,1.731,1.731,0,0,0-.039-.366,3.155,3.155,0,0,0-.131-.432q-.091-.248-.261-.615t-.405-.941a9.9,9.9,0,0,1-2.864-.457q-1.347-.432-2.589-.916t-2.406-.889a7,7,0,0,0-2.314-.405,4.94,4.94,0,0,0-1.622.261q-.575,1.386-.9,2.184t-.5,1.229a3.922,3.922,0,0,0-.209.641,2.389,2.389,0,0,0-.039.444,1.3,1.3,0,0,0,.327.942,1.229,1.229,0,0,0,.929.34h.314v.5Zm4.472-6.774a5.224,5.224,0,0,1,1.413-.183,7.291,7.291,0,0,1,2.341.392q1.164.392,2.379.876t2.524.9a10.2,10.2,0,0,0,2.746.471l-6.355-14.75Zm30.9-13.4a9.344,9.344,0,0,1,5.545,5.413,11.388,11.388,0,0,1,.771,4.276,13.107,13.107,0,0,1-.667,4.289,9.791,9.791,0,0,1-1.87,3.308,8.277,8.277,0,0,1-2.916,2.131,9.234,9.234,0,0,1-3.779.759h-9.86v-.5a1.5,1.5,0,0,0,1.164-.445,2.1,2.1,0,0,0,.406-1.438V604.479a2.359,2.359,0,0,0-.366-1.4,1.136,1.136,0,0,0-.967-.51h-.236V602.1h8.369A12.392,12.392,0,0,1,207.287,602.844Zm.222,19.039a7.022,7.022,0,0,0,2.419-2.039,9.748,9.748,0,0,0,1.556-3.178,14.554,14.554,0,0,0,.549-4.132,12.285,12.285,0,0,0-.654-4.106,9.174,9.174,0,0,0-1.857-3.177,8.215,8.215,0,0,0-2.89-2.04,9.468,9.468,0,0,0-3.753-.719H197.65V622.6h6.721A6.807,6.807,0,0,0,207.509,621.884ZM232.748,602.1v.5q-1.333,0-2.536,1.883c-.139.209-.253.388-.34.536l-.34.576q-.209.353-.562.954t-.981,1.687q-.628,1.085-1.621,2.759t-2.459,4.158v5.492a2.325,2.325,0,0,0,.366,1.36,1.13,1.13,0,0,0,.968.523h.236v.5h-4.708v-.5h.236a1.128,1.128,0,0,0,.967-.523,2.321,2.321,0,0,0,.366-1.36v-4.891l-6.355-11.271a6.982,6.982,0,0,0-1.151-1.4,1.725,1.725,0,0,0-1.151-.484v-.5h4.656v.5h-.261q-.628,0-.628.576a2.344,2.344,0,0,0,.419,1.177l5.884,10.2,5.728-9.7a3.286,3.286,0,0,0,.549-1.516q0-.733-.785-.733h-.209q-.1,0-.1-.261V602.1Zm6.3,20.556v.366h-4.315v-.5a1.577,1.577,0,0,0,1.124-.393,1.935,1.935,0,0,0,.5-1.281l.6-16.371h-.026a.151.151,0,0,0,.026-.1,2.268,2.268,0,0,0-.327-1.308,1.04,1.04,0,0,0-.9-.471h-.261v-.5h2.824l8.081,19.039,7.716-19.039h2.955v.5a1.4,1.4,0,0,0-1.033.354,1.811,1.811,0,0,0-.406,1.19l.732,16.5a2.289,2.289,0,0,0,.458,1.438,1.5,1.5,0,0,0,1.164.445v.5H253.28v-.5h.262a1.007,1.007,0,0,0,.889-.471,2.341,2.341,0,0,0,.314-1.307v-.1q-.131-4.341-.3-8.644t-.327-8.669l-8.081,19.85h-.392q-2.04-4.786-4.093-9.506t-4.093-9.507l-.6,16.372a2.289,2.289,0,0,0,.536,1.451,1.66,1.66,0,0,0,1.295.536h.366Zm20.663.366v-.5a1.844,1.844,0,0,0,1.229-.418,3.566,3.566,0,0,0,.889-1.308l7.689-18.726h.471l8,18.595a4.211,4.211,0,0,0,.9,1.373,1.738,1.738,0,0,0,1.242.484v.5H275.2v-.5h.314a1.129,1.129,0,0,0,.811-.275.982.982,0,0,0,.287-.745,1.73,1.73,0,0,0-.039-.366,3.153,3.153,0,0,0-.131-.432q-.091-.248-.261-.615t-.405-.941a9.9,9.9,0,0,1-2.864-.457q-1.347-.432-2.589-.916t-2.406-.889a7,7,0,0,0-2.314-.405,4.94,4.94,0,0,0-1.622.261q-.575,1.386-.9,2.184t-.5,1.229a3.929,3.929,0,0,0-.209.641,2.39,2.39,0,0,0-.039.444,1.3,1.3,0,0,0,.327.942,1.23,1.23,0,0,0,.929.34h.314v.5Zm4.472-6.774a5.224,5.224,0,0,1,1.413-.183,7.291,7.291,0,0,1,2.341.392q1.164.392,2.379.876t2.524.9a10.2,10.2,0,0,0,2.746.471l-6.355-14.75Zm18.152,6.774v-.5a1.5,1.5,0,0,0,1.164-.445,2.1,2.1,0,0,0,.406-1.438V604.479a2.373,2.373,0,0,0-.353-1.373,1.1,1.1,0,0,0-.954-.51h-.261v-.5h4.707v.5a1.453,1.453,0,0,0-1.151.445,2.15,2.15,0,0,0-.392,1.438v16.162a2.376,2.376,0,0,0,.353,1.373,1.1,1.1,0,0,0,.955.51h.235v.5Zm20.282-20.177a9.344,9.344,0,0,1,5.544,5.413,11.388,11.388,0,0,1,.771,4.276,13.107,13.107,0,0,1-.667,4.289,9.8,9.8,0,0,1-1.87,3.308,8.274,8.274,0,0,1-2.916,2.131,9.229,9.229,0,0,1-3.779.759h-9.86v-.5a1.5,1.5,0,0,0,1.164-.445,2.1,2.1,0,0,0,.406-1.438V604.479a2.358,2.358,0,0,0-.366-1.4,1.137,1.137,0,0,0-.968-.51h-.235V602.1h8.369A12.392,12.392,0,0,1,302.622,602.844Zm.222,19.039a7.032,7.032,0,0,0,2.419-2.039,9.748,9.748,0,0,0,1.556-3.178,14.553,14.553,0,0,0,.549-4.132,12.3,12.3,0,0,0-.654-4.106,9.183,9.183,0,0,0-1.857-3.177,8.215,8.215,0,0,0-2.89-2.04,9.468,9.468,0,0,0-3.753-.719h-5.231V622.6h6.721A6.807,6.807,0,0,0,302.844,621.884Z" transform="translate(-136.029 -556.47)" fill="#46a83a"/>
      <path id="Path_9698-2" data-name="Path 9698" d="M300.23,564.3a1.424,1.424,0,1,1-1.423-1.424,1.423,1.423,0,0,1,1.423,1.424" transform="translate(-210.58 -538.361)" fill="#46a83a"/>
      <path id="Path_9699-2" data-name="Path 9699" d="M306.535,564.3a1.424,1.424,0,1,1-1.423-1.424,1.423,1.423,0,0,1,1.423,1.424" transform="translate(-213.493 -538.361)" fill="#46a83a"/>
      <path id="Path_9700-2" data-name="Path 9700" d="M300.23,570.4a1.424,1.424,0,1,1-1.423-1.424,1.423,1.423,0,0,1,1.423,1.424" transform="translate(-210.58 -541.179)" fill="#46a83a"/>
      <path id="Path_9701-2" data-name="Path 9701" d="M306.535,570.4a1.424,1.424,0,1,1-1.423-1.424,1.423,1.423,0,0,1,1.423,1.424" transform="translate(-213.493 -541.179)" fill="#46a83a"/>
    </g>
  </g>
</svg>
